<?xml version="1.0" encoding="utf-8"?>
<!-- Generator: Adobe Illustrator 24.3.0, SVG Export Plug-In . SVG Version: 6.00 Build 0)  -->
<svg version="1.1" id="Layer_1" xmlns="http://www.w3.org/2000/svg" xmlns:xlink="http://www.w3.org/1999/xlink" x="0px" y="0px"
	 viewBox="0 0 78 78" style="enable-background:new 0 0 78 78;" xml:space="preserve">
<style type="text/css">
	.st0{fill:#001E36;}
	.st1{fill:#31A8FF;}
</style>
<g id="Layer_2_1_">
	<g id="Surfaces">
		<g id="Photo_Surface">
			<g id="Outline_no_shadow">
				<path class="st0" d="M13.9,0h50.4C71.8,0,78,6.4,78,14.2v49.6C78,71.6,71.8,78,64.1,78H13.9C6.2,78,0,71.6,0,63.8V14.2
					C0,6.4,6.2,0,13.9,0z"/>
			</g>
		</g>
	</g>
	<g id="Outlined_Mnemonics_Logos">
		<g id="Ps">
			<path class="st1" d="M17.5,54.8V20.4c0-0.2,0.2-0.3,0.3-0.3c0.6,0,1.1,0,1.9,0c0.8,0,1.6,0,2.5,0s1.9,0,2.8,0c0.9,0,2,0,3,0
				c2.7,0,4.8,0.3,6.7,1.1c1.6,0.6,3.1,1.6,4.4,2.8c1.1,1.1,1.9,2.3,2.3,3.7c0.5,1.4,0.8,2.8,0.8,4.4c0,2.8-0.6,5.3-1.9,7.2
				c-1.2,1.9-3.1,3.3-5.3,4.1c-2.2,0.8-4.7,1.1-7.3,1.1c-0.8,0-1.2,0-1.6,0c-0.3,0-0.8,0-1.4,0v10.1c0,0.2-0.2,0.5-0.3,0.5
				c0,0,0,0-0.2,0h-6.2C17.6,55.1,17.5,55.1,17.5,54.8z M24.6,26.5v11.2c0.5,0,0.9,0,1.2,0h1.7c1.2,0,2.5-0.2,3.7-0.6
				c1.1-0.3,1.9-0.9,2.7-1.7c0.6-0.8,0.9-2,0.9-3.4c0-1.1-0.2-2-0.8-3c-0.6-0.9-1.4-1.6-2.3-1.9c-1.2-0.5-2.5-0.6-3.9-0.6
				c-0.8,0-1.6,0-2.2,0C25.3,26.4,24.8,26.4,24.6,26.5L24.6,26.5z"/>
			<path class="st1" d="M62.4,35.6c-0.9-0.5-2-0.9-3.1-1.1C58,34.2,56.9,34,55.7,34c-0.6,0-1.4,0-1.9,0.2c-0.5,0.2-0.8,0.3-0.9,0.6
				c-0.2,0.3-0.3,0.6-0.3,0.9s0.2,0.6,0.3,0.9c0.3,0.3,0.6,0.6,1.1,0.9c0.8,0.5,1.6,0.8,2.3,1.1c1.7,0.6,3.4,1.4,5,2.5
				c1.1,0.6,1.9,1.6,2.5,2.8c0.5,1.1,0.8,2.2,0.8,3.4c0,1.6-0.5,3.1-1.2,4.4c-0.9,1.4-2.2,2.3-3.6,3c-1.6,0.6-3.6,1.1-5.9,1.1
				c-1.6,0-3-0.2-4.4-0.5c-1.1-0.2-2.3-0.6-3.3-1.1c-0.2-0.2-0.3-0.3-0.3-0.6v-5.8c0-0.2,0-0.2,0.2-0.3c0.2,0,0.2,0,0.3,0
				c1.2,0.8,2.7,1.2,4.1,1.6c1.2,0.3,2.5,0.5,3.9,0.5c1.2,0,2.2-0.2,2.7-0.5c0.5-0.2,0.9-0.8,0.9-1.4c0-0.5-0.3-0.9-0.8-1.4
				s-1.6-0.9-3.1-1.6c-1.7-0.6-3.1-1.4-4.7-2.3c-0.9-0.8-1.9-1.7-2.5-2.8c-0.5-1.1-0.8-2.2-0.8-3.4c0-1.4,0.3-2.8,1.1-4.1
				c0.8-1.4,2-2.3,3.4-3.1c1.6-0.8,3.4-1.1,5.8-1.1c1.4,0,2.7,0.2,4.1,0.3c0.9,0.2,1.9,0.5,2.8,0.8c0.2,0,0.3,0.2,0.3,0.3
				c0,0.2,0,0.3,0,0.5v5.5c0,0.2,0,0.3-0.2,0.3C62.7,35.7,62.6,35.7,62.4,35.6z"/>
		</g>
	</g>
</g>
</svg>
