<?xml version="1.0" encoding="utf-8"?>
<!-- Generator: Adobe Illustrator 24.3.0, SVG Export Plug-In . SVG Version: 6.00 Build 0)  -->
<svg version="1.1" id="Layer_1" xmlns="http://www.w3.org/2000/svg" xmlns:xlink="http://www.w3.org/1999/xlink" x="0px" y="0px"
	 viewBox="0 0 78 77.9" style="enable-background:new 0 0 78 77.9;" xml:space="preserve">
<style type="text/css">
	.st0{fill:#470137;}
	.st1{fill:#FF61F6;}
</style>
<g>
	<path class="st0" d="M13.8,0h50.4C71.8,0,78,6.4,78,14.2v49.6C78,71.6,71.8,78,64.2,78H13.8C6.2,77.8,0,71.3,0,63.6V14.2
		C0,6.4,6.2,0,13.8,0z"/>
	<path class="st1" d="M41,20.4l-9.8,16.4l10.5,17.3c0,0.2,0.2,0.2,0,0.4c0,0.2-0.2,0-0.2,0h-7.6c-0.4,0-0.9,0-1.1-0.2
		c-0.7-1.3-1.3-2.9-2-4.2c-0.7-1.3-1.3-2.9-2.2-4.2c-0.7-1.3-1.6-2.9-2.2-4.4c-0.7,1.3-1.3,2.9-2.2,4.4c-0.7,1.6-1.6,2.9-2.2,4.2
		c-0.7,1.3-1.6,2.9-2.2,4.2c-0.2,0.2-0.2,0.2-0.9,0.2h-7.1c-0.2,0-0.2,0-0.2-0.2v-0.2l10.3-16.9l-9.8-17.1c-0.2-0.2-0.2-0.2,0-0.2
		c0-0.2,0.2-0.2,0.2-0.2h7.4h0.4c0.2,0,0.2,0.2,0.2,0.2c0.7,1.3,1.3,2.9,2,4.4l2.5,4.2c0.9,1.3,1.6,2.9,2.2,4.2
		c0.7-1.3,1.3-2.9,2.2-4.4c0.7-1.3,1.3-2.9,2.2-4.2c0.7-1.3,1.3-2.9,2.2-4.2c-0.2,0,0-0.2,0-0.2c0.2,0,0.2-0.2,0.4,0h6.9
		c0.2,0,0.2,0,0.2,0.2C41.2,20.2,41,20.4,41,20.4z"/>
	<path class="st1" d="M55.9,55.6c-2.2,0-4.9-0.4-6.9-1.6c-2-0.9-3.8-2.4-4.9-4.4c-1.3-2-1.8-4.4-1.8-7.6c0-2.4,0.7-4.9,1.8-7.1
		c1.3-2.2,2.9-4,5.1-5.1c2.2-1.3,4.9-1.8,8.2-1.8h0.7h0.9V17.3c0.2-0.2,0.2-0.2,0.4-0.2H66c0.2,0,0.2,0.2,0.2,0.2v31.6v2
		c0,0.7,0.2,1.3,0.2,1.8c0,0.2-0.2,0.4-0.2,0.4c-1.8,0.9-3.3,1.3-5.3,1.6C59.5,55.3,57.7,55.6,55.9,55.6z M59.3,48.9V34.2
		c-0.2,0-0.7-0.2-0.9-0.2h-1.1c-1.3,0-2.5,0.2-3.8,0.9c-1.1,0.7-2,1.3-2.9,2.4c-0.9,1.1-1.1,2.4-1.1,4.2c0,1.1,0.2,2.2,0.7,3.3
		c0.2,0.9,0.9,1.8,1.3,2.2c0.7,0.7,1.3,1.1,2.2,1.3c0.9,0.2,1.8,0.4,2.7,0.4h1.6C58.6,49.1,58.8,49.1,59.3,48.9z"/>
</g>
</svg>
