<?xml version="1.0" encoding="utf-8"?>
<!-- Generator: Adobe Illustrator 24.3.0, SVG Export Plug-In . SVG Version: 6.00 Build 0)  -->
<svg version="1.1" id="Layer_1" xmlns="http://www.w3.org/2000/svg" xmlns:xlink="http://www.w3.org/1999/xlink" x="0px" y="0px"
	 viewBox="0 0 78 78" style="enable-background:new 0 0 78 78;" xml:space="preserve">
<style type="text/css">
	.st0{fill:#330000;}
	.st1{fill:#FF9A00;}
</style>
<g id="Layer_2_1_">
	<g id="Surfaces">
		<g id="Drawing_Surface">
			<g id="Outline_no_shadow">
				<path class="st0" d="M13.9,0h50.4C71.8,0,78,6.4,78,14.2v49.6C78,71.6,71.8,78,64.1,78H13.9C6.2,78,0,71.6,0,63.8V14.2
					C0,6.4,6.2,0,13.9,0z"/>
			</g>
		</g>
	</g>
	<g id="Outlined_Mnemonics_Logos">
		<g id="Ai">
			<path class="st1" d="M37.8,46.8H25.6l-2.5,7.8c0,0.3-0.3,0.5-0.6,0.5h-6.1c-0.3,0-0.5-0.2-0.3-0.6l10.5-30.9
				c0.2-0.3,0.2-0.6,0.3-1.1c0.2-0.6,0.2-1.4,0.2-2.2c0-0.2,0.2-0.3,0.3-0.3c0,0,0,0,0.2,0h8.4c0.3,0,0.3,0.2,0.5,0.3l11.9,34.3
				c0.2,0.3,0,0.5-0.3,0.5H41c-0.2,0-0.5-0.2-0.5-0.3L37.8,46.8z M27.6,40.1h8.3c-0.2-0.6-0.5-1.6-0.8-2.3c-0.3-0.9-0.6-1.9-0.9-2.8
				c-0.3-1.1-0.6-2-0.9-3.1c-0.3-1.1-0.6-2-0.9-3c-0.3-0.9-0.5-1.9-0.8-2.7l0,0c-0.3,1.4-0.6,2.8-1.1,4.4c-0.5,1.6-0.9,3.3-1.6,5
				C28.5,37.1,28.1,38.7,27.6,40.1L27.6,40.1z"/>
			<path class="st1" d="M55.2,25.7c-1.1,0-2.2-0.5-3-1.1c-0.8-0.8-1.1-1.9-1.1-3.1c0-1.1,0.3-2.2,1.2-3s1.9-1.1,3-1.1
				c1.2,0,2.2,0.5,3,1.1c0.8,0.8,1.1,1.9,1.1,3c0,1.1-0.3,2.2-1.1,3.1C57.4,25.3,56.3,25.7,55.2,25.7z M51.5,54.6V28.9
				c0-0.3,0.2-0.5,0.5-0.5h6.4c0.3,0,0.5,0.2,0.5,0.5v25.7c0,0.3-0.2,0.5-0.5,0.5h-6.4C51.6,55.1,51.5,54.9,51.5,54.6z"/>
		</g>
	</g>
</g>
</svg>
