<?xml version="1.0" encoding="utf-8"?>
<!-- Generator: Adobe Illustrator 24.3.0, SVG Export Plug-In . SVG Version: 6.00 Build 0)  -->
<svg version="1.1" id="Layer_1" xmlns="http://www.w3.org/2000/svg" xmlns:xlink="http://www.w3.org/1999/xlink" x="0px" y="0px"
	 viewBox="0 0 205.8 209.8" style="enable-background:new 0 0 205.8 209.8;" xml:space="preserve">
<style type="text/css">
	.st0{opacity:0.3;}
	.st1{fill:#231F20;}
	.st2{fill:none;stroke:#231F20;stroke-width:1.0323;}
	.st3{filter:url(#filter-3);}
	.st4{fill:#FFFFFF;}
	.st5{fill:url(#path-2_3_);}
	.st6{fill:#75BB43;}
	.st7{fill:url(#Path_3_);}
	.st8{fill:#EB2385;}
</style>
<filter  height="107.0%" id="filter-3" width="107.0%" x="-3.1%" y="-2.7%">
	<feOffset  dx="1" dy="2" in="SourceAlpha" result="shadowOffsetOuter1"></feOffset>
	<feGaussianBlur  in="shadowOffsetOuter1" result="shadowBlurOuter1" stdDeviation="2.5"></feGaussianBlur>
	<feColorMatrix  in="shadowBlurOuter1" type="matrix" values="0 0 0 0 0 0 0 0 0 0 0 0 0 0 0 0 0 0 0.5 0"></feColorMatrix>
</filter>
<desc>Created with Sketch.</desc>
<g id="Asset-5" transform="translate(5.129032, 4.564516)">
	<g id="Group" class="st0">
		<path id="Rectangle" class="st1" d="M27.8-0.7h139c16.8,0,30.5,13.7,30.5,30.5v139c0,16.8-13.7,30.5-30.5,30.5h-139
			c-16.8,0-30.5-13.7-30.5-30.5v-139C-2.7,12.9,10.9-0.7,27.8-0.7z"/>
		<path id="Rectangle_1_" class="st2" d="M27.8-0.7h139c16.8,0,30.5,13.7,30.5,30.5v139c0,16.8-13.7,30.5-30.5,30.5h-139
			c-16.8,0-30.5-13.7-30.5-30.5v-139C-2.7,12.9,10.9-0.7,27.8-0.7z"/>
	</g>
	<g id="Rectangle_2_">
		<g class="st3">
			<path id="path-2_3_" d="M27.8-0.7h139c16.8,0,30.5,13.7,30.5,30.5v139c0,16.8-13.7,30.5-30.5,30.5h-139
				c-16.8,0-30.5-13.7-30.5-30.5v-139C-2.7,12.9,10.9-0.7,27.8-0.7z"/>
		</g>
		<g>
			<path id="path-2_1_" class="st4" d="M27.8-0.7h139c16.8,0,30.5,13.7,30.5,30.5v139c0,16.8-13.7,30.5-30.5,30.5h-139
				c-16.8,0-30.5-13.7-30.5-30.5v-139C-2.7,12.9,10.9-0.7,27.8-0.7z"/>
		</g>
		<g>
			
				<linearGradient id="path-2_3_" gradientUnits="userSpaceOnUse" x1="-857.2994" y1="639.5795" x2="-857.2994" y2="638.7589" gradientTransform="matrix(243.7253 0 0 -243.7253 209042.8438 155880.9688)">
				<stop  offset="0" style="stop-color:#FFFFFF;stop-opacity:0.5"/>
				<stop  offset="1" style="stop-color:#E3E8E9;stop-opacity:0.5"/>
			</linearGradient>
			<path id="path-2_2_" class="st5" d="M27.8-0.7h139c16.8,0,30.5,13.7,30.5,30.5v139c0,16.8-13.7,30.5-30.5,30.5h-139
				c-16.8,0-30.5-13.7-30.5-30.5v-139C-2.7,12.9,10.9-0.7,27.8-0.7z"/>
		</g>
	</g>
</g>
<g id="Asset-1" transform="translate(56.000000, 41.500000)">
	<path id="Path" class="st6" d="M110.9-17.7L110.9-17.7c-1.4-2.8-4.3-4.5-7.4-4.3H90.7c-3.7,0-6.5,1.5-8,4.2L63.7,10l16.6,22.8
		l29.1-41.8C112.6-12.8,111.5-16.3,110.9-17.7z"/>
	
		<linearGradient id="Path_3_" gradientUnits="userSpaceOnUse" x1="-902.6937" y1="601.4252" x2="-901.6937" y2="601.4252" gradientTransform="matrix(88.5327 0 0 -164.7423 79892.8359 99140.5234)">
		<stop  offset="0" style="stop-color:#6764AD"/>
		<stop  offset="4.000000e-02" style="stop-color:#5F69B1"/>
		<stop  offset="0.21" style="stop-color:#407BBF"/>
		<stop  offset="0.38" style="stop-color:#2789CA"/>
		<stop  offset="0.57" style="stop-color:#1693D2"/>
		<stop  offset="0.76" style="stop-color:#0B99D6"/>
		<stop  offset="1" style="stop-color:#089BD8"/>
	</linearGradient>
	<path id="Path_1_" class="st7" d="M10.5-18.1L10.5-18.1c-1.9-2.6-4.9-4-8.1-3.9h-12.6c-3-0.1-5.8,1.4-7.2,4.1
		c-1.4,2.6-1.1,5.8,0.8,8.8l46.6,64.6l-53.5,74.7c-1.9,2.5-2.1,5.8-0.7,8.6c1.4,2.6,4.2,4.2,7.2,4.1h12.9c3.2,0.1,6.1-1.6,7.7-4.4
		l59.9-82.6L10.5-18.1z"/>
	<path id="Path_2_" class="st8" d="M117.3,130.7L79.9,79.5l-16.4,22.7L93,141.6l0.8,0.3c1.2,0.5,2.4,0.8,3.7,0.8h12.6
		c2.8,0.1,5.5-1.3,7.1-3.7C118.7,136.5,118.7,133.3,117.3,130.7L117.3,130.7z"/>
</g>
</svg>
