<?xml version="1.0" encoding="utf-8"?>
<!-- Generator: Adobe Illustrator 24.3.0, SVG Export Plug-In . SVG Version: 6.00 Build 0)  -->
<svg version="1.1" id="Layer_1" xmlns="http://www.w3.org/2000/svg" xmlns:xlink="http://www.w3.org/1999/xlink" x="0px" y="0px"
	 viewBox="0 0 226.4 331.8" style="enable-background:new 0 0 226.4 331.8;" xml:space="preserve">
<style type="text/css">
	.st0{fill:#F24747;}
</style>
<g>
	<path class="st0" d="M102.6,1.7l-99.9,50C1.1,52.5,0,54.2,0,56v220.3c0,1.8,1,3.5,2.7,4.3l99.9,50c3.2,1.6,7-0.7,7-4.3V6
		C109.7,2.4,105.9,0,102.6,1.7z"/>
	<path class="st0" d="M123.8,330.5l99.9-50c1.6-0.8,2.7-2.5,2.7-4.3V169.1c0-1.8-1-3.5-2.7-4.3l-99.9-50c-3.2-1.6-7,0.7-7,4.3v207.1
		C116.7,329.8,120.5,332.2,123.8,330.5z"/>
</g>
</svg>
