<?xml version="1.0" encoding="utf-8"?>
<!-- Generator: Adobe Illustrator 24.3.0, SVG Export Plug-In . SVG Version: 6.00 Build 0)  -->
<svg version="1.1" id="Layer_1" xmlns="http://www.w3.org/2000/svg" xmlns:xlink="http://www.w3.org/1999/xlink" x="0px" y="0px"
	 viewBox="0 0 150 211" style="enable-background:new 0 0 150 211;" xml:space="preserve">
<style type="text/css">
	.st0{fill:#2062AF;}
	.st1{fill:#3C9CD7;}
	.st2{fill:#FFFFFF;}
	.st3{fill:url(#SVGID_1_);}
	.st4{fill:url(#SVGID_2_);}
	.st5{fill:url(#SVGID_3_);}
	.st6{opacity:5.000000e-02;enable-background:new    ;}
	.st7{fill:url(#SVGID_4_);}
</style>
<path class="st0" d="M135.9,194.6L75,211l-60.9-16.4L0,42.3h150L135.9,194.6z"/>
<path class="st1" d="M75,54.6v143.3h0.1l49.3-13.3l11.4-130.1H75V54.6z"/>
<path class="st2" d="M40.4,19.9v-9.1h13.2V0.9H30.5v28h23.2v-9H40.4L40.4,19.9z M77.4,10.8h9.3V0.9H63.5v9.9
	c3.1,3.1,4.7,4.6,9.2,9.1c-2.6,0-9.2,0-9.2,0v9h23.2v-9L77.4,10.8L77.4,10.8z M110.3,10.8h9.3V0.9H96.4v9.9c3.1,3.1,4.7,4.6,9.2,9.1
	c-2.6,0-9.2,0-9.2,0v9h23.2v-9L110.3,10.8L110.3,10.8z"/>
<path class="st2" d="M74.9,92.7l-43.6,18.2l1.4,18l42.2-18l44.9-19.2l1.9-18.4L74.9,92.7L74.9,92.7z"/>
<linearGradient id="SVGID_1_" gradientUnits="userSpaceOnUse" x1="-3300.3347" y1="36.3802" x2="-3300.3347" y2="28.5915" gradientTransform="matrix(4.6418 0 0 4.6418 15372.5938 -39.9695)">
	<stop  offset="0.387" style="stop-color:#D1D3D4;stop-opacity:0"/>
	<stop  offset="1" style="stop-color:#D1D3D4"/>
</linearGradient>
<path class="st3" d="M31.3,110.9l1.4,18l42.2-18V92.7L31.3,110.9z"/>
<linearGradient id="SVGID_2_" gradientUnits="userSpaceOnUse" x1="-3290.5972" y1="32.4894" x2="-3290.5972" y2="24.3891" gradientTransform="matrix(4.6418 0 0 4.6418 15372.5938 -39.9695)">
	<stop  offset="0.387" style="stop-color:#D1D3D4;stop-opacity:0"/>
	<stop  offset="1" style="stop-color:#D1D3D4"/>
</linearGradient>
<path class="st4" d="M121.7,73.2L74.9,92.7v18.1l44.9-19.2L121.7,73.2z"/>
<linearGradient id="SVGID_3_" gradientUnits="userSpaceOnUse" x1="-3305.0095" y1="39.8486" x2="-3286.3101" y2="39.8486" gradientTransform="matrix(4.6418 0 0 4.6418 15372.5938 -39.9695)">
	<stop  offset="0" style="stop-color:#E8E7E5"/>
	<stop  offset="1" style="stop-color:#FFFFFF"/>
</linearGradient>
<path class="st5" d="M31.4,110.9l1.4,18l64.7,0.2l-1.4,24l-21.3,6l-20.5-5.2L53.1,139h-19l2.5,28.7L75,179.1l38.2-11.2l5-57
	L31.4,110.9L31.4,110.9z"/>
<path class="st6" d="M74.9,110.9H31.3l1.4,18l42.2,0.1V110.9L74.9,110.9z M74.9,159l-0.2,0.1l-20.4-5.2L53,139H34l2.5,28.7
	l38.4,11.4V159z"/>
<linearGradient id="SVGID_4_" gradientUnits="userSpaceOnUse" x1="-3305.8713" y1="26.3625" x2="-3285.5559" y2="26.3625" gradientTransform="matrix(4.6418 0 0 4.6418 15372.5938 -39.9695)">
	<stop  offset="0" style="stop-color:#E8E7E5"/>
	<stop  offset="1" style="stop-color:#FFFFFF"/>
</linearGradient>
<path class="st7" d="M27.4,73.2h94.3l-1.9,18.4H29.7L27.4,73.2L27.4,73.2z"/>
<path class="st6" d="M74.9,73.2H27.4l2.3,18.4H75L74.9,73.2L74.9,73.2z"/>
</svg>
