<svg xmlns="http://www.w3.org/2000/svg" viewBox="0 0 32.98 24.22"><defs><style>.cls-1{fill:#ae1f28;}.cls-2{fill:#fff;}.cls-3{fill:#20478b;}</style></defs><title>dutch_flag</title><g id="Layer_2" data-name="Layer 2"><g id="Courses"><path class="cls-1" d="M8.07,0H24.91A8.07,8.07,0,0,1,33,8.07v0a0,0,0,0,1,0,0H0a0,0,0,0,1,0,0v0A8.07,8.07,0,0,1,8.07,0Z"/><rect class="cls-2" y="8.07" width="32.98" height="8.07" transform="translate(32.98 24.22) rotate(-180)"/><path class="cls-3" d="M8.07,16.15H24.91A8.07,8.07,0,0,1,33,24.22v0a0,0,0,0,1,0,0H0a0,0,0,0,1,0,0v0A8.07,8.07,0,0,1,8.07,16.15Z" transform="translate(32.98 40.37) rotate(-180)"/></g></g></svg>