<?xml version="1.0" encoding="utf-8"?>
<!-- Generator: Adobe Illustrator 24.3.0, SVG Export Plug-In . SVG Version: 6.00 Build 0)  -->
<svg version="1.1" id="Layer_1" xmlns="http://www.w3.org/2000/svg" xmlns:xlink="http://www.w3.org/1999/xlink" x="0px" y="0px"
	 viewBox="0 0 490 490" style="enable-background:new 0 0 490 490;" xml:space="preserve">
<style type="text/css">
	.st0{fill:#169C94;}
</style>
<g id="XMLID_891_">
	<g>
		<g>
			<path class="st0" d="M490,305V185h-70c-2.5-7.3-5.5-14.4-8.8-21.3l49.5-49.5l-84.9-84.9l-49.5,49.5c-6.9-3.4-14.1-6.3-21.3-8.8V0
				H185v70c-7.3,2.5-14.4,5.5-21.3,8.8l-49.5-49.5l-84.9,84.9l49.5,49.5c-3.4,6.9-6.3,14.1-8.8,21.3H0v120h70
				c2.5,7.3,5.5,14.4,8.8,21.3l-49.5,49.5l84.9,84.9l49.5-49.5c6.9,3.4,14.1,6.3,21.3,8.8v70h120v-70c7.3-2.5,14.4-5.5,21.3-8.8
				l49.5,49.5l84.9-84.9l-49.5-49.5c3.4-6.9,6.3-14,8.8-21.3L490,305L490,305z M418.2,375.8l-42.4,42.4l-44.2-44.2l-9.9,5.7
				c-11.2,6.4-23.2,11.4-35.6,14.8l-11,3V460h-60v-62.5l-11-3c-12.4-3.4-24.4-8.4-35.6-14.8l-9.9-5.7l-44.2,44.2l-42.4-42.4
				l44.2-44.2l-5.7-9.9c-6.4-11.2-11.4-23.2-14.8-35.6l-3-11H30v-60h62.5l3-11c3.4-12.4,8.4-24.4,14.8-35.6l5.7-9.9l-44.2-44.2
				l42.4-42.4l44.2,44.2l9.9-5.7c11.2-6.4,23.2-11.4,35.6-14.8l11-3V30h60v62.5l11,3c12.4,3.4,24.4,8.4,35.6,14.8l9.9,5.7l44.2-44.2
				l42.4,42.4l-44.2,44.2l5.7,9.9c6.4,11.2,11.4,23.2,14.8,35.6l3,11H460v60h-62.5l-3,11c-3.4,12.4-8.4,24.4-14.8,35.6l-5.7,9.9
				L418.2,375.8z"/>
			<path class="st0" d="M245,150c-52.4,0-95,42.6-95,95s42.6,95,95,95s95-42.6,95-95S297.4,150,245,150z M245,310
				c-35.8,0-65-29.2-65-65s29.2-65,65-65s65,29.2,65,65S280.8,310,245,310z"/>
		</g>
	</g>
</g>
</svg>
