<?xml version="1.0" encoding="utf-8"?>
<!-- Generator: Adobe Illustrator 24.3.0, SVG Export Plug-In . SVG Version: 6.00 Build 0)  -->
<svg version="1.1" id="Capa_1" xmlns="http://www.w3.org/2000/svg" xmlns:xlink="http://www.w3.org/1999/xlink" x="0px" y="0px"
	 viewBox="0 0 81 79.6" style="enable-background:new 0 0 81 79.6;" xml:space="preserve">
<g>
	<path d="M75.1,20.7c-3.6-6.1-8.4-11-14.6-14.5c-6.1-3.6-12.8-5.4-20.1-5.4c-7.3,0-14,1.8-20.1,5.4c-6.1,3.6-11,8.4-14.6,14.5
		c-3.6,6.1-5.4,12.8-5.4,20.1c0,8.7,2.5,16.5,7.6,23.5c5.1,7,11.7,11.8,19.7,14.4c0.9,0.2,1.6,0.1,2.1-0.4c0.5-0.4,0.7-0.9,0.7-1.6
		c0-0.1,0-1,0-2.8c0-1.8,0-3.3,0-4.6l-1.2,0.2c-0.8,0.1-1.7,0.2-2.9,0.2c-1.2,0-2.4-0.1-3.6-0.4c-1.3-0.2-2.4-0.7-3.5-1.6
		c-1.1-0.8-1.8-1.9-2.3-3.2l-0.5-1.2c-0.3-0.8-0.9-1.7-1.6-2.7c-0.7-1-1.5-1.6-2.3-2l-0.4-0.3c-0.2-0.2-0.5-0.4-0.7-0.6
		c-0.2-0.2-0.4-0.5-0.5-0.7c-0.1-0.2,0-0.4,0.3-0.6c0.3-0.2,0.8-0.2,1.5-0.2l1,0.2c0.7,0.1,1.6,0.6,2.6,1.2c1,0.7,1.9,1.6,2.5,2.7
		c0.8,1.4,1.8,2.5,2.9,3.3c1.1,0.7,2.3,1.1,3.4,1.1s2.1-0.1,3-0.3c0.8-0.2,1.6-0.4,2.3-0.8c0.3-2.3,1.2-4.1,2.6-5.4
		c-2-0.2-3.8-0.5-5.3-0.9c-1.6-0.4-3.2-1.1-4.9-2c-1.7-0.9-3.1-2.1-4.2-3.5c-1.1-1.4-2-3.2-2.7-5.5c-0.7-2.3-1.1-4.9-1.1-7.8
		c0-4.2,1.4-7.8,4.1-10.7c-1.3-3.2-1.2-6.7,0.4-10.6c1-0.3,2.5-0.1,4.5,0.7c2,0.8,3.4,1.4,4.3,2c0.9,0.6,1.7,1,2.2,1.4
		c3.2-0.9,6.6-1.4,10-1.4c3.4,0,6.8,0.5,10,1.4l2-1.2c1.4-0.8,3-1.6,4.8-2.3c1.8-0.7,3.2-0.9,4.2-0.6c1.6,3.9,1.7,7.5,0.4,10.6
		c2.7,2.9,4.1,6.5,4.1,10.7c0,2.9-0.4,5.6-1.1,7.8c-0.7,2.3-1.6,4.1-2.8,5.5c-1.1,1.4-2.5,2.5-4.2,3.5c-1.7,0.9-3.3,1.6-4.9,2
		c-1.6,0.4-3.4,0.7-5.3,0.9c1.8,1.6,2.7,4,2.7,7.4v11c0,0.6,0.2,1.1,0.7,1.6c0.4,0.4,1.1,0.5,2.1,0.4c8.1-2.7,14.6-7.5,19.7-14.4
		c5.1-7,7.6-14.8,7.6-23.5C80.5,33.5,78.7,26.8,75.1,20.7z"/>
</g>
</svg>
