<?xml version="1.0" encoding="utf-8"?>
<!-- Generator: Adobe Illustrator 24.3.0, SVG Export Plug-In . SVG Version: 6.00 Build 0)  -->
<svg version="1.1" id="Layer_1" xmlns="http://www.w3.org/2000/svg" xmlns:xlink="http://www.w3.org/1999/xlink" x="0px" y="0px"
	 viewBox="0 0 35.6 35" style="enable-background:new 0 0 35.6 35;" xml:space="preserve">
<style type="text/css">
	.st0{fill:#F9AB00;}
	.st1{fill:#E37400;}
</style>
<g id="google-analytics-4" transform="translate(0 -0.022)">
	<path id="Path_42" class="st0" d="M35.3,30.6c0,2.4-2.1,4.4-4.8,4.4c-0.2,0-0.4,0-0.6,0c-2.5-0.3-4.3-2.3-4.2-4.5V4.6
		c-0.1-2.3,1.8-4.2,4.2-4.5c2.6-0.3,5,1.4,5.3,3.8c0,0.2,0,0.4,0,0.5L35.3,30.6z"/>
	<path id="Path_43" class="st1" d="M5.1,26.4c2.7,0,4.8,1.9,4.8,4.3S7.8,35,5.1,35c-2.7,0-4.8-1.9-4.8-4.3
		C0.3,28.3,2.5,26.4,5.1,26.4C5.1,26.4,5.1,26.4,5.1,26.4z M17.7,13.2c-2.7,0.1-4.7,2.1-4.7,4.6v11.6c0,3.2,1.5,5.1,3.8,5.5
		c2.6,0.5,5.1-1,5.7-3.4c0,0,0,0,0,0c0.1-0.3,0.1-0.6,0.1-0.9V17.6C22.6,15.2,20.5,13.2,17.7,13.2L17.7,13.2z"/>
</g>
</svg>
