<?xml version="1.0" encoding="utf-8"?>
<!-- Generator: Adobe Illustrator 24.3.0, SVG Export Plug-In . SVG Version: 6.00 Build 0)  -->
<svg version="1.1" id="Layer_1" xmlns="http://www.w3.org/2000/svg" xmlns:xlink="http://www.w3.org/1999/xlink" x="0px" y="0px"
	 viewBox="0 0 28.7 36.8" style="enable-background:new 0 0 28.7 36.8;" xml:space="preserve">
<style type="text/css">
	.st0{fill:#568040;}
</style>
<g>
	<path class="st0" d="M24.7,5.5c-0.5,0-1.1,0.1-1.5,0.3c-0.3-1.7-1.8-3-3.6-3c-0.6,0-1.1,0.1-1.6,0.4c-0.4-1.6-1.8-2.8-3.6-2.8
		s-3.2,1.2-3.6,2.8c-0.5-0.2-1-0.4-1.6-0.4c-2,0-3.7,1.7-3.7,3.7v9.1c-0.4-0.2-1-0.3-1.5-0.3c-2,0-3.7,1.7-3.7,3.7v7.6
		c0,5.4,4.3,9.7,9.7,9.7h8.7c5.3,0,9.7-4.4,9.7-9.7V9.2C28.4,7.2,26.7,5.5,24.7,5.5z M26.2,26.6c0,4.1-3.3,7.5-7.4,7.5h-8.7
		c-4.1,0-7.4-3.4-7.4-7.5V19c0-0.8,0.7-1.5,1.5-1.5s1.5,0.7,1.5,1.5v5.9h2.2V6.5c0-0.8,0.7-1.5,1.5-1.5c0.8,0,1.5,0.7,1.5,1.5v11.7
		h2.2V4.1c0-0.8,0.7-1.5,1.5-1.5c0.8,0,1.5,0.7,1.5,1.5v14.2h2.2V6.5c0-0.8,0.7-1.5,1.5-1.5c0.8,0,1.5,0.7,1.5,1.5v11.7h2.2v-9
		c0-0.8,0.7-1.5,1.5-1.5s1.5,0.7,1.5,1.5V26.6z"/>
</g>
</svg>
