<?xml version="1.0" encoding="utf-8"?>
<!-- Generator: Adobe Illustrator 24.3.0, SVG Export Plug-In . SVG Version: 6.00 Build 0)  -->
<svg version="1.1" id="Layer_1" xmlns="http://www.w3.org/2000/svg" xmlns:xlink="http://www.w3.org/1999/xlink" x="0px" y="0px"
	 viewBox="0 0 100.7 142.1" style="enable-background:new 0 0 100.7 142.1;" xml:space="preserve">
<style type="text/css">
	.st0{fill:#E44D26;}
	.st1{fill:#F16529;}
	.st2{fill:#EBEBEB;}
	.st3{fill:#FFFFFF;}
</style>
<path class="st0" d="M100.2,28.7l-9.1,102.1l-41,11.4L9.3,130.8L0.2,28.7H100.2L100.2,28.7z"/>
<path class="st1" d="M50.2,133.4l33.1-9.2L91.1,37H50.2V133.4z"/>
<path class="st2" d="M32.5,62.1h17.7V49.6H18.8l0.3,3.4l3.1,34.5h28V74.9H33.7L32.5,62.1z M35.4,93.7H22.8l1.8,19.7l25.6,7.1h0.1
	v-13h-0.1l-13.9-3.8L35.4,93.7L35.4,93.7z"/>
<path class="st3" d="M9.5,0.9h6.4v6.3h5.8V0.9h6.4v19h-6.4v-6.4h-5.8v6.4H9.5V0.9L9.5,0.9z M36.5,7.3h-5.6V1h17.6v6.3h-5.6V20h-6.4
	V7.3L36.5,7.3L36.5,7.3z M51.2,0.9h6.6l4.1,6.7L66,0.9h6.6v19h-6.3v-9.4l-4.4,6.8h-0.1l-4.4-6.8v9.4h-6.2
	C51.2,19.9,51.2,0.9,51.2,0.9z M75.8,0.9h6.4v12.7h8.9v6.3H75.8V0.9L75.8,0.9z"/>
<path class="st3" d="M50.2,87.4h15.4l-1.5,16.2l-14,3.8v13l25.7-7.1l0.2-2.1l2.9-33l0.3-3.4h-29L50.2,87.4L50.2,87.4z M50.2,62
	L50.2,62h30.2l0.3-2.8l0.6-6.3l0.3-3.4H50.2V62L50.2,62z"/>
</svg>
