<?xml version="1.0" encoding="utf-8"?>
<!-- Generator: Adobe Illustrator 22.0.1, SVG Export Plug-In . SVG Version: 6.00 Build 0)  -->
<svg version="1.1" id="Layer_1" xmlns="http://www.w3.org/2000/svg" xmlns:xlink="http://www.w3.org/1999/xlink" x="0px" y="0px"
	 viewBox="0 0 100.7 140.9" style="enable-background:new 0 0 100.7 140.9;" xml:space="preserve">
<style type="text/css">
	.st0{fill:#E44D26;}
	.st1{fill:#F16529;}
	.st2{fill:#EBEBEB;}
	.st3{fill:#FFFFFF;}
</style>
<path class="st0" d="M100.2,27.5l-9.1,102.1l-41,11.4L9.3,129.6L0.2,27.5H100.2L100.2,27.5z"/>
<path class="st1" d="M50.2,132.2l33.1-9.2l7.8-87.2H50.2V132.2z"/>
<path class="st2" d="M32.5,60.9h17.7V48.4H18.8l0.3,3.4l3.1,34.5h28V73.7H33.7L32.5,60.9z M35.4,92.5H22.8l1.8,19.7l25.6,7.1l0.1,0
	v-13l-0.1,0l-13.9-3.8L35.4,92.5L35.4,92.5z"/>
<path d="M9.5-0.3h6.4V6h5.8v-6.3h6.4v19h-6.4v-6.4h-5.8v6.4H9.5L9.5-0.3L9.5-0.3z M36.5,6.1h-5.6v-6.3h17.6v6.3h-5.6v12.7h-6.4
	L36.5,6.1L36.5,6.1L36.5,6.1z M51.2-0.3h6.6l4.1,6.7L66-0.3h6.6v19h-6.3V9.3l-4.4,6.8h-0.1l-4.4-6.8v9.4h-6.2V-0.3z M75.8-0.3h6.4
	v12.7h8.9v6.3H75.8L75.8-0.3L75.8-0.3z"/>
<path class="st3" d="M50.2,86.2h15.4l-1.5,16.2l-14,3.8v13l25.7-7.1L76,110l2.9-33l0.3-3.4H50.2V86.2L50.2,86.2z M50.2,60.8
	L50.2,60.8l30.2,0l0.3-2.8l0.6-6.3l0.3-3.4H50.2V60.8L50.2,60.8z"/>
</svg>
