<?xml version="1.0" encoding="utf-8"?>
<!-- Generator: Adobe Illustrator 24.3.0, SVG Export Plug-In . SVG Version: 6.00 Build 0)  -->
<svg version="1.1" id="Capa_1" xmlns="http://www.w3.org/2000/svg" xmlns:xlink="http://www.w3.org/1999/xlink" x="0px" y="0px"
	 viewBox="0 0 36.9 36.9" style="enable-background:new 0 0 36.9 36.9;" xml:space="preserve">
<style type="text/css">
	.st0{fill:#568040;}
</style>
<g>
	<path class="st0" d="M10.8,22.6c-0.6,0.1-1.1,0.4-1.5,0.8l-8,8c-1.2,1.2-1.2,3.1,0,4.2c1.2,1.2,3.1,1.2,4.2,0l8-8
		c0.5-0.5,0.7-1,0.8-1.5c5.5,3.8,13.1,3.3,18-1.5c5.5-5.5,5.5-14.4,0-19.9s-14.4-5.5-19.9,0C7.5,9.5,7,17.1,10.8,22.6z M15,7.1
		c4.1-4.1,10.7-4.1,14.9,0c4.1,4.1,4.1,10.7,0,14.9c-4.1,4.1-10.7,4.1-14.9,0S10.8,11.2,15,7.1z"/>
</g>
</svg>
