<?xml version="1.0" encoding="utf-8"?>
<!-- Generator: Adobe Illustrator 24.3.0, SVG Export Plug-In . SVG Version: 6.00 Build 0)  -->
<svg version="1.1"
	 id="Layer_1" inkscape:version="0.48.2 r9819" sodipodi:docname="Outlook_logo.svg" xmlns:cc="http://creativecommons.org/ns#" xmlns:dc="http://purl.org/dc/elements/1.1/" xmlns:inkscape="http://www.inkscape.org/namespaces/inkscape" xmlns:rdf="http://www.w3.org/1999/02/22-rdf-syntax-ns#" xmlns:sodipodi="http://sodipodi.sourceforge.net/DTD/sodipodi-0.dtd" xmlns:svg="http://www.w3.org/2000/svg"
	 xmlns="http://www.w3.org/2000/svg" xmlns:xlink="http://www.w3.org/1999/xlink" x="0px" y="0px" viewBox="0 0 103.2 104.3"
	 style="enable-background:new 0 0 103.2 104.3;" xml:space="preserve">
<style type="text/css">
	.st0{fill:#FFFFFF;}
</style>
<sodipodi:namedview  bordercolor="#666666" borderopacity="1" fit-margin-bottom="0" fit-margin-left="0" fit-margin-right="0" fit-margin-top="0" gridtolerance="10" guidetolerance="10" id="namedview41" inkscape:current-layer="Layer_1" inkscape:cx="91.558992" inkscape:cy="89.87632" inkscape:pageopacity="0" inkscape:pageshadow="2" inkscape:window-height="837" inkscape:window-maximized="1" inkscape:window-width="1600" inkscape:window-x="-8" inkscape:window-y="-8" inkscape:zoom="1" objecttolerance="10" pagecolor="#ffffff" showgrid="false">
	</sodipodi:namedview>
<path id="path3" inkscape:connector-curvature="0" class="st0" d="M64.6,22.1v20.4l7.1,4.5c0.2,0.1,0.6,0.1,0.8,0l30.7-20.7
	c0-2.4-2.3-4.2-3.6-4.2H64.6z"/>
<path id="path5" inkscape:connector-curvature="0" class="st0" d="M64.6,50.1l6.5,4.5c0.9,0.7,2,0,2,0c-1.1,0.7,30.1-20,30.1-20
	v37.5c0,4.1-2.6,5.8-5.6,5.8H64.6L64.6,50.1L64.6,50.1z"/>
<g id="g23" transform="matrix(3.9178712,0,0,3.9178712,-13.481403,-41.384473)">
	<path id="path25" inkscape:connector-curvature="0" class="st0" d="M11.3,21c-0.6,0-1,0.3-1.4,0.8S9.5,23,9.5,23.9
		c0,0.9,0.2,1.6,0.5,2.1c0.3,0.5,0.8,0.8,1.3,0.8c0.6,0,1-0.3,1.3-0.8s0.5-1.2,0.5-2.1c0-0.9-0.2-1.7-0.5-2.2
		C12.3,21.2,11.9,21,11.3,21z"/>
	<path id="path27" inkscape:connector-curvature="0" class="st0" d="M3.4,13.6v20.4l15.5,3.2V10.6L3.4,13.6z M13.8,27.2
		c-0.7,0.9-1.5,1.3-2.6,1.3c-1,0-1.9-0.4-2.5-1.3c-0.6-0.8-1-1.9-1-3.3c0-1.4,0.3-2.6,1-3.4s1.5-1.3,2.6-1.3c1,0,1.9,0.4,2.5,1.3
		c0.6,0.8,0.9,1.9,0.9,3.3C14.8,25.2,14.5,26.3,13.8,27.2z"/>
</g>
</svg>
