<svg xmlns="http://www.w3.org/2000/svg" viewBox="0 0 128 128" xmlns:v="https://vecta.io/nano"> <radialGradient id="A" cx="63.6" cy="1104.9" r="56.96" gradientTransform="matrix(1 0 0 1 0 -1042)" gradientUnits="userSpaceOnUse"> <stop offset=".5" stop-color="#fde030"/> <stop offset=".92" stop-color="#f7c02b"/> <stop offset="1" stop-color="#f4a223"/> </radialGradient> <path d="M63.6 118.8c-27.9 0-58-17.5-58-55.9S35.7 7 63.6 7c15.5 0 29.8 5.1 40.4 14.4 11.5 10.2 17.6 24.6 17.6 41.5s-6.1 31.2-17.6 41.4c-10.6 9.3-25 14.5-40.4 14.5z" fill="url(#A)"><title>A pensive emoji</title></path> <path d="M111.49 29.67c5.33 8.6 8.11 18.84 8.11 30.23 0 16.9-6.1 31.2-17.6 41.4-10.6 9.3-25 14.5-40.4 14.5-18.06 0-37-7.35-48.18-22.94 10.76 17.66 31 25.94 50.18 25.94 15.4 0 29.8-5.2 40.4-14.5 11.5-10.2 17.6-24.5 17.6-41.4 0-12.74-3.47-24.06-10.11-33.23z" fill="#eb8f00"/> <path d="M53 95h22" fill="none" stroke="#35220b" stroke-width="8" stroke-linecap="round" stroke-linejoin="round"/> <path d="M49.6 64l-.7.7c-.2.2-.4.3-.7.6a8.55 8.55 0 0 1-1 .7c-.4.2-.8.5-1.2.7s-.9.4-1.4.6a8.74 8.74 0 0 1-1.5.4 7.78 7.78 0 0 1-1.6.1h-.9c-.2 0-.5-.1-.7-.1a8.74 8.74 0 0 1-1.5-.4c-.49-.14-.96-.34-1.4-.6-.42-.2-.82-.43-1.2-.7l-1.7-1.3-.8-.8c-1.29-1.16-3.22-1.24-4.6-.2a2.68 2.68 0 0 0-.8 3.2l.1.3a5.97 5.97 0 0 0 .4.8c.61 1.03 1.35 1.97 2.2 2.8a16.09 16.09 0 0 0 1.9 1.6c.79.55 1.62 1.02 2.5 1.4a15.1 15.1 0 0 0 3 1l1.7.3c.3 0 .7.1.8.1h.8a18.25 18.25 0 0 0 3.3-.3c1.04-.21 2.04-.55 3-1 .88-.38 1.71-.85 2.5-1.4a7.7 7.7 0 0 0 1.9-1.6 8.44 8.44 0 0 0 1.3-1.5c.2-.2.3-.5.5-.7s.3-.4.4-.6c.17-.24.31-.51.4-.8l.1-.2a2.79 2.79 0 0 0-1.42-3.67 2.43 2.43 0 0 0-.38-.13 2.99 2.99 0 0 0-3.3.7zm44.91.37l-.2.2c-.16.18-.33.35-.51.5l-.69.57-1 .7-1.2.69a10.98 10.98 0 0 1-1.37.57c-.49.15-.99.27-1.5.37a10.28 10.28 0 0 1-1.57.12h-.88l-.7-.09-1.5-.37c-.48-.18-.94-.39-1.39-.63l-1.2-.69c-.59-.39-1.14-.83-1.66-1.31l-.63-.58-.25-.25a3.53 3.53 0 0 0-4.57-.17 2.66 2.66 0 0 0-.78 3.25l.15.3c.13.29.28.57.44.84a13.83 13.83 0 0 0 4.09 4.32c.79.55 1.63 1.02 2.51 1.4a16.25 16.25 0 0 0 3.05 1l1.73.26c.31 0 .67.06.83.06h.78a18.63 18.63 0 0 0 3.33-.35 16.25 16.25 0 0 0 3.05-1c.88-.38 1.72-.85 2.51-1.4a13.94 13.94 0 0 0 3.25-3.07l.48-.67.4-.63c.15-.24.28-.5.39-.77l.11-.25c.6-1.43-.08-3.08-1.51-3.68a1.76 1.76 0 0 0-.3-.1c-1.29-.45-2.73-.11-3.69.86zM23.4 46.8c-2.2.4-2.3 3.6.1 3.7A20.62 20.62 0 0 0 37.8 45a17.25 17.25 0 0 0 3.7-4.5 1.831 1.831 0 1 0-3-2.1l-.1.1a26.03 26.03 0 0 1-15 8.3zm66.1-8.4a1.831 1.831 0 1 0-3 2.1 17.25 17.25 0 0 0 3.7 4.5c3.9 3.57 9.01 5.54 14.3 5.5 2.5-.1 2.3-3.3.1-3.7a25.54 25.54 0 0 1-15.1-8.4h0" fill="#422b0d"/></svg>