<?xml version="1.0" encoding="utf-8"?>
<!-- Generator: Adobe Illustrator 22.0.1, SVG Export Plug-In . SVG Version: 6.00 Build 0)  -->
<svg version="1.1" id="Layer_1" xmlns="http://www.w3.org/2000/svg" xmlns:xlink="http://www.w3.org/1999/xlink" x="0px" y="0px"
	 viewBox="0 0 512 512" style="enable-background:new 0 0 512 512;" xml:space="preserve">
<style type="text/css">
	.st0{fill:none;stroke:#FFFFFF;stroke-width:32;stroke-linecap:round;stroke-linejoin:round;}
	.st1{fill:none;stroke:#FFFFFF;stroke-width:32;stroke-miterlimit:10;}
	.st2{fill:none;stroke:#FFFFFF;stroke-width:32;stroke-linecap:round;stroke-miterlimit:10;}
</style>
<title>People</title>
<path class="st0" d="M402,168c-2.9,40.7-33.1,72-66,72s-63.1-31.3-66-72c-3-42.3,26.4-72,66-72S405,126.5,402,168z"/>
<path class="st1" d="M336,304c-65.2,0-127.8,32.4-143.5,95.4c-2.1,8.3,3.1,16.6,11.7,16.6h263.7c8.6,0,13.8-8.3,11.7-16.6
	C463.9,335.4,401.2,304,336,304z"/>
<path class="st0" d="M200,185.9c-2.3,32.5-26.7,58.1-53,58.1s-50.7-25.6-53-58.1c-2.4-33.8,21.3-57.9,53-57.9S202.4,152.8,200,185.9
	z"/>
<path class="st2" d="M206,306c-18.1-8.3-37.9-11.5-59-11.5c-52,0-102.1,25.9-114.7,76.2c-1.6,6.7,2.5,13.3,9.4,13.3H154"/>
</svg>
