<?xml version="1.0" encoding="utf-8"?>
<!-- Generator: Adobe Illustrator 24.3.0, SVG Export Plug-In . SVG Version: 6.00 Build 0)  -->
<svg version="1.1" id="Layer_1" xmlns="http://www.w3.org/2000/svg" xmlns:xlink="http://www.w3.org/1999/xlink" x="0px" y="0px"
	 viewBox="0 0 424.9 428.1" style="enable-background:new 0 0 424.9 428.1;" xml:space="preserve">
<style type="text/css">
	.st0{fill:#FFFFFF;stroke:#FFFFFF;stroke-miterlimit:10;}
</style>
<path class="st0" d="M216.2,6.1C99.2,4.5,3.7,100,5.3,217c1.6,112.2,92.9,203.5,205.1,205.1c117,1.6,212.5-93.9,210.9-210.9
	C419.7,99,328.3,7.6,216.2,6.1z M342.6,333.3c-1.5,1.6-4,1.7-5.7,0.2c-0.2-0.2-0.3-0.3-0.5-0.5c-8.9-11.7-19.9-21.7-32.4-29.6
	c-25.5-16.3-57.7-25.3-90.8-25.3s-65.4,9-90.8,25.3C110,311.3,99,321.3,90.1,333c-1.3,1.8-3.8,2.1-5.6,0.8c-0.2-0.1-0.4-0.3-0.5-0.5
	c-29.3-31.7-46-73.1-46.7-116.2c-1.6-97.3,78.2-178.8,175.6-179s176.4,78.8,176.4,176C389.3,258.3,372.6,300.9,342.6,333.3z"/>
<path class="st0" d="M213.3,102.1c-19.7,0-37.6,7.4-50.2,20.8s-19,32-17.6,51.9c2.9,39.3,33.3,71.3,67.8,71.3s64.8-32,67.8-71.2
	c1.5-19.7-4.8-38.1-17.7-51.8C250.6,109.5,232.8,102.1,213.3,102.1z"/>
</svg>
