<?xml version="1.0" encoding="utf-8"?>
<!-- Generator: Adobe Illustrator 24.3.0, SVG Export Plug-In . SVG Version: 6.00 Build 0)  -->
<svg version="1.1" id="Layer_1" xmlns="http://www.w3.org/2000/svg" xmlns:xlink="http://www.w3.org/1999/xlink" x="0px" y="0px"
	 viewBox="0 0 28.6 36.7" style="enable-background:new 0 0 28.6 36.7;" xml:space="preserve">
<style type="text/css">
	.st0{fill:#568040;}
</style>
<path class="st0" d="M14.3,16.3c4.4,0,8-3.6,8-8s-3.6-8-8-8s-8,3.6-8,8S9.9,16.3,14.3,16.3z M14.3,4.3c2.2,0,4,1.8,4,4s-1.8,4-4,4
	s-4-1.8-4-4S12.1,4.3,14.3,4.3z"/>
<path class="st0" d="M14.3,20.3c-7.8,0-14,6.2-14,14c0,1.2,0.8,2,2,2s2-0.8,2-2c0-5.6,4.4-10,10-10s10,4.4,10,10c0,1.2,0.8,2,2,2
	s2-0.8,2-2C28.3,26.7,22.1,20.3,14.3,20.3z"/>
</svg>
