<?xml version="1.0" encoding="utf-8"?>
<!-- Generator: Adobe Illustrator 24.3.0, SVG Export Plug-In . SVG Version: 6.00 Build 0)  -->
<svg version="1.1" id="Layer_1" xmlns="http://www.w3.org/2000/svg" xmlns:xlink="http://www.w3.org/1999/xlink" x="0px" y="0px"
	 viewBox="0 0 100 50" style="enable-background:new 0 0 100 50;" xml:space="preserve">
<style type="text/css">
	.st0{fill:#FFFFFF;}
</style>
<path class="st0" d="M7.6,11.1h14.2c4.2,0,7.2,1.2,9.1,3.6s2.5,5.6,1.9,9.7c-0.2,1.9-0.8,3.7-1.6,5.5c-0.8,1.8-1.9,3.4-3.4,4.9
	c-1.8,1.8-3.7,3-5.7,3.5S18,39,15.8,39H9.4l-2,10.1H0L7.6,11.1L7.6,11.1 M13.8,17.2l-3.2,15.9c0.2,0,0.4,0.1,0.6,0.1
	c0.2,0,0.5,0,0.7,0c3.4,0,6.2-0.3,8.5-1s3.8-3.3,4.6-7.7c0.6-3.7,0-5.8-1.9-6.4s-4.2-0.8-7-0.8c-0.4,0-0.8,0.1-1.2,0.1
	C14.5,17.2,14.1,17.2,13.8,17.2L13.8,17.2"/>
<path class="st0" d="M41.1,1h7.3l-2.1,10.1h6.6c3.6,0.1,6.3,0.8,8.1,2.2c1.8,1.4,2.3,4.1,1.6,8.1L59,39.1h-7.4L55,22.2
	c0.4-1.8,0.2-3-0.3-3.8c-0.6-0.7-1.8-1.1-3.7-1.1l-5.9-0.1L40.8,39h-7.3L41.1,1L41.1,1"/>
<path class="st0" d="M70.4,11.1h14.2c4.2,0,7.2,1.2,9.1,3.6s2.5,5.6,1.9,9.7c-0.2,1.9-0.8,3.7-1.6,5.5c-0.8,1.8-1.9,3.4-3.4,4.9
	c-1.8,1.8-3.7,3-5.7,3.5S80.8,39,78.6,39h-6.4l-2,10.1h-7.4L70.4,11.1L70.4,11.1 M76.6,17.2l-3.2,15.9c0.2,0,0.4,0.1,0.6,0.1
	s0.5,0,0.7,0c3.4,0,6.2-0.3,8.5-1s3.8-3.3,4.6-7.7c0.6-3.7,0-5.8-1.9-6.4s-4.2-0.8-7-0.8c-0.4,0-0.8,0.1-1.2,0.1
	C77.3,17.2,76.9,17.2,76.6,17.2L76.6,17.2"/>
</svg>
