<svg xmlns="http://www.w3.org/2000/svg" viewBox="0 0 122.7087 149.3324"><defs><style>.cls-1{fill:#f5ddcd;}.cls-2{fill:#e95f23;}.cls-3{fill:#c1694e;}.cls-4{fill:#c36c51;}.cls-5{fill:#671c0c;}</style></defs><title>redhead_emoji</title><g id="Layer_2" data-name="Layer 2"><g id="Courses"><path class="cls-1" d="M116.8312,68.2692c8.9554,9.9728,7.5242,25.0351-3.25,32.4677-1.7364,1.1979-1.62,2.8208-1.98,4.284a64.1174,64.1174,0,0,1-12.8267,26.1876c-20.1651,24.2278-55.06,24.1535-75.1563-.1538A62.1549,62.1549,0,0,1,11.2892,106.26c-.7343-2.9154-1.6886-4.9989-4.6729-6.8622-8.9728-5.6024-8.6852-24.0253.0484-31.8378,4.8156,2.1241,4.714,2.0918,6.4458-3.3486a56.4105,56.4105,0,0,1,12.22-21.5207c3.6638-3.9655,5.4926-4.1358,9.8607-1.0623a77.6012,77.6012,0,0,0,8.2662,5.5735c2.9358,1.5473,5.7189,2.6881,8.4982-.4779,1.9755-2.25,3.8914-.5257,5.7435.5692,2.9058,1.7177,4.8028,4.9969,8.2506,5.7614.4742-.5262.6534-.8288.6275-1.17-.5845-7.7215-.57-7.7642,6.6366-4.9372a69.3219,69.3219,0,0,0,21.9511,4.2412c4.7758.2461,7.7949,2.1948,9.7213,6.4021,1.2453,2.72,2.6634,5.3622,4.0122,8.0353C111.7041,71.1853,111.7051,71.1849,116.8312,68.2692Z"/><path class="cls-2" d="M116.8312,68.2692c-1.4253,1.7418-1.3189,5.1647-4.0027,5.2794-3.0192.129-3.7831-3.1309-4.4751-5.3138C104.78,56.9641,98.2148,50.7835,85.45,51.5731c-6.1528.3806-12.3774-2.1557-18.5859-6.03.734,2.7525,1.2578,4.7265,1.7874,6.6989.3108,1.1578.5676,2.4022-.5328,3.21-1.1272.8269-2.2307.0661-3.226-.5225-4.0322-2.3846-7.2073-5.8445-11.0449-9.0418C52.2536,47.3,52.729,50.29,50.206,50.7344c-2.85.5024-5.2506-.7946-7.5-2.1688a57.825,57.825,0,0,1-8.9871-6.2506c-2.73-2.4906-4.4473-1.6685-6.57.5737A55.9561,55.9561,0,0,0,14.1464,66.1713c-.6425,2.1943.16,5.7963-2.944,6.182-2.5829.321-2.9593-3.1874-4.5405-4.7906C4.9426,59.74,3.54,51.8523,4.62,43.8329c2.0883-15.5065,9.7859-27.77,23.5385-35.0888C50.1446-2.9573,72.7128-3.2272,94.2049,9.83c18.0926,10.9916,26.2474,27.65,23.64,49.0621C117.4651,62.0124,117.1671,65.1431,116.8312,68.2692Z"/><path class="cls-3" d="M61.5887,131.8575c-7.7463-.1089-15.1918-.5483-22.1642-3.749-2.946-1.3523-5.5191-3.2831-3.7982-6.8624,1.7476-3.6351,4.5588-2.2526,7.6433-1.1911,12.1386,4.1776,24.4236,4.3619,36.514-.2624,2.9322-1.1216,5.6118-2.1111,7.2048,1.2775,1.4955,3.1812-.42,5.3535-3.2821,6.7512C76.6332,131.2751,69.0207,131.71,61.5887,131.8575Z"/><path class="cls-4" d="M61.1934,109.9154c-3.6037-.2069-8.4394.9841-8.5141-4.3714-.0745-5.3415,4.6979-4.5581,8.2566-4.4928,3.6215.0664,8.8075-1.26,8.8965,4.3411C69.9231,111.1012,64.6942,109.6181,61.1934,109.9154Z"/><path class="cls-5" d="M35.0734,78.9587c-.0025-.6625.0155-1.3255-.0055-1.9874-.1014-3.1991.1846-6.3446,4.38-6.2975,4.1744.0469,4.375,3.25,4.3385,6.4061-.0229,1.9872.0219,3.9759-.035,5.9619-.0818,2.8571-1.2884,4.8937-4.4134,4.85-3.1156-.044-4.2721-2.071-4.2634-4.9577C35.0791,81.6087,35.0758,80.2837,35.0734,78.9587Z"/><path class="cls-5" d="M87.5426,79.053c-.5,3.675,1.4015,8.9232-4.64,8.7218-5.4557-.1818-4.11-5.1045-4.085-8.503C78.8433,75.75,77.364,70.59,83.3706,70.77,89.0047,70.9393,86.9524,75.9714,87.5426,79.053Z"/></g></g></svg>