<?xml version="1.0" encoding="utf-8"?>
<!-- Generator: Adobe Illustrator 22.0.1, SVG Export Plug-In . SVG Version: 6.00 Build 0)  -->
<svg version="1.1" id="Layer_1" xmlns="http://www.w3.org/2000/svg" xmlns:xlink="http://www.w3.org/1999/xlink" x="0px" y="0px"
	 viewBox="0 0 150.3 112.6" style="enable-background:new 0 0 150.3 112.6;" xml:space="preserve">
<style type="text/css">
	.st0{fill:#D06397;}
</style>
<title>sass-logo</title>
<g id="Layer_2_1_">
	<g id="Layer_1-2">
		<path class="st0" d="M129.4,64.7c-4.7,0-9.4,1.1-13.6,3.2c-1.4-2.8-2.8-5.2-3-7c-0.3-2.1-0.6-3.4-0.3-5.9c0.3-2.5,1.8-6.1,1.8-6.4
			s-0.3-1.6-3.4-1.6c-3,0-5.6,0.6-5.9,1.4c-0.5,1.5-0.9,2.9-1.2,4.5c-0.5,2.7-6,12.5-9.2,17.6c-1-2-1.9-3.8-2.1-5.2
			c-0.3-2.1-0.6-3.4-0.3-5.9c0.3-2.5,1.8-6.1,1.8-6.4c0-0.3-0.3-1.6-3.4-1.6S85,52,84.7,52.8c-0.3,0.8-0.6,2.7-1.2,4.5
			s-7.9,18.1-9.9,22.3c-1,2.2-1.8,3.9-2.4,5.1l0,0l-0.1,0.2c-0.5,1-0.8,1.6-0.8,1.6v0c-0.4,0.7-0.8,1.4-1.1,1.4
			c-0.2,0-0.5-2,0.1-4.7c1.1-5.7,3.7-14.5,3.7-14.8c0-0.2,0.5-1.7-1.7-2.5c-2.1-0.8-2.9,0.5-3.1,0.5c-0.2,0-0.3,0.5-0.3,0.5
			s2.4-9.9-4.5-9.9C59,57,53,61.7,50,66c-1.8,1-5.8,3.2-10,5.5l-4.8,2.7c-0.1-0.1-0.2-0.2-0.3-0.4c-8.4-8.9-23.9-15.3-23.2-27.3
			c0.2-4.4,1.8-15.9,29.8-29.8c22.9-11.4,41.3-8.3,44.5-1.3c4.5,10-9.8,28.5-33.6,31.2c-9.1,1-13.9-2.5-15.1-3.8
			c-1.3-1.4-1.4-1.4-1.9-1.2c-0.8,0.4-0.3,1.6,0,2.4c0.7,1.9,3.6,5.1,8.6,6.8c4.4,1.4,15,2.2,27.9-2.8c14.4-5.6,25.7-21.1,22.4-34.1
			C90.8,0.6,68.9-3.7,48.2,3.6C35.9,8,22.5,14.9,12.9,23.9C1.5,34.6-0.3,43.8,0.4,47.7c2.7,13.8,21.7,22.8,29.3,29.4l-1,0.6
			c-3.8,1.9-18.3,9.5-21.9,17.5c-4.1,9.1,0.7,15.6,3.8,16.5c9.8,2.7,19.8-2.2,25.2-10.2S40.5,83,38,78.2c0-0.1-0.1-0.1-0.1-0.2
			c1-0.6,2-1.2,3-1.8c1.9-1.1,3.9-2.2,5.5-3.1c-0.9,2.5-1.6,5.6-2,10C44,88.3,46.1,95,48.9,97.6c1.2,1.2,2.7,1.2,3.6,1.2
			c3.2,0,4.7-2.7,6.3-5.8c2-3.9,3.7-8.4,3.7-8.4s-2.2,12.2,3.8,12.2c2.2,0,4.4-2.8,5.4-4.3v0c0,0,0.1-0.1,0.2-0.3
			c0.2-0.3,0.4-0.6,0.4-0.6s0,0,0-0.1c0.9-1.5,2.8-5,5.8-10.8c3.8-7.4,7.4-16.8,7.4-16.8c0.4,2,0.8,4.1,1.4,6c0.7,2.2,2,4.7,3.1,7
			c-0.9,1.2-1.4,1.9-1.4,1.9l0,0C88,80,87.2,81,86.3,82c-3,3.6-6.6,7.6-7,8.8c-0.6,1.4-0.4,2.4,0.7,3.2c0.8,0.6,2.2,0.7,3.7,0.6
			c1.9-0.1,3.8-0.5,5.5-1.3c1.7-0.6,3.3-1.4,4.7-2.5c2.9-2.2,4.7-5.2,4.5-9.3c-0.1-2.3-0.8-4.5-1.7-6.6c0.3-0.4,0.5-0.8,0.8-1.2
			c3-4.5,5.8-9.3,8.2-14.2c0.4,2,0.8,4.1,1.4,6c0.5,1.9,1.7,4,2.7,6c-4.4,3.5-7,7.6-8,10.3c-1.7,5-0.4,7.2,2.2,7.8
			c1.2,0.2,2.8-0.3,4-0.8c1.8-0.6,3.5-1.5,5.1-2.6c2.9-2.2,5.8-5.2,5.6-9.3c-0.1-1.9-0.6-3.7-1.3-5.5c3.7-1.5,8.5-2.4,14.5-1.7
			c13,1.5,15.6,9.7,15.1,13.1c-0.5,3.4-3.2,5.3-4.1,5.8c-0.9,0.6-1.2,0.8-1.1,1.2c0.1,0.6,0.5,0.6,1.3,0.5c1.1-0.2,6.8-2.8,7.1-9.1
			C150.6,73.4,142.9,64.6,129.4,64.7z M28.8,98.6c-4.3,4.7-10.4,6.5-12.9,5C13.1,102,14.2,95,19.5,90c3.2-3,7.4-5.9,10.2-7.6
			l2.7-1.6l0.3-0.2l0,0l0.7-0.4C35.2,87.4,33.3,93.6,28.8,98.6z M60.3,77.2c-1.5,3.7-4.7,13.1-6.6,12.6c-1.6-0.4-2.6-7.6-0.3-14.6
			c1.2-3.5,3.7-7.8,5.1-9.4c2.4-2.6,5-3.5,5.6-2.4C64.9,64.7,61.2,74.9,60.3,77.2L60.3,77.2z M86.3,89.6c-0.6,0.3-1.2,0.5-1.5,0.4
			c-0.2-0.1,0.3-0.5,0.3-0.5s3.3-3.5,4.5-5.1c0.7-0.9,1.6-2,2.5-3.3c0,0.1,0,0.2,0,0.4C92.1,85.6,88.1,88.5,86.3,89.6L86.3,89.6z
			 M106.3,85c-0.5-0.3-0.4-1.4,1.2-4.8c1.1-2.2,2.6-4.2,4.5-5.8c0.3,0.8,0.4,1.7,0.5,2.5C112.4,82.2,108.6,84.2,106.3,85L106.3,85z"
			/>
	</g>
</g>
</svg>
