<svg xmlns="http://www.w3.org/2000/svg" viewBox="0 0 32.9827 23.3264"><defs><style>.cls-1{fill:#26282c;}.cls-2{fill:#010101;}.cls-3{fill:#c6c6c6;}.cls-4{fill:#24272b;}.cls-5{fill:#060809;}</style></defs><title>Asset 21</title><g id="Layer_2" data-name="Layer 2"><g id="Courses"><path class="cls-1" d="M20.8578,22.5872l-.0375.0007-.008.0022a3.8945,3.8945,0,0,1-.9374.0573c-1.0145-.0015-3.069,0-3.3656,0h-.036c-.2965,0-2.3511-.0015-3.3655,0A3.8945,3.8945,0,0,1,12.17,22.59l-.0081-.0022-.0374-.0007.0051-.0257.003-.0147.0007-.0022c.0455-.2408.4338-2.2843.5035-2.5948a.0432.0432,0,0,1,.0529-.0323l.6423.0455c.207.0235,1.046-.0132,1.4314-.0367a12.2363,12.2363,0,0,1,1.7264.0154h.0022a12.2378,12.2378,0,0,1,1.7265-.0154c.3854.0235,1.2244.06,1.4314.0367l.6423-.0455a.0431.0431,0,0,1,.0528.0323c.07.3105.4581,2.354.5036,2.5948l.0007.0022.0029.0147Z"/><path class="cls-2" d="M32.9827,1.0827V18.6388A1.0824,1.0824,0,0,1,31.9,19.7215H20.4636s-.1931.0066-.1189.2239c-.152.0124-.17.0785-.17.0785l-3.6783.11h-.0095l-3.6783-.11s-.0176-.0661-.17-.0785c.0741-.2173-.1182-.2239-.1182-.2239H1.0827A1.0824,1.0824,0,0,1,0,18.6388V1.0827A1.0828,1.0828,0,0,1,1.0827,0H31.9A1.0828,1.0828,0,0,1,32.9827,1.0827Z"/><rect id="screen" class="cls-3" x="0.6851" y="0.6731" width="31.6127" height="18.3755"/><path class="cls-4" d="M21.892,23.3264l-5.3827-.0125h-.036l-5.3819.0125c-.2034,0-.26-.2885-.0749-.33l.5461-.1218.0125-.0037.5256-.1578,4.391.1064,4.39-.1064.5256.1578.0125.0037.5468.1218C22.1519,23.0379,22.0954,23.3264,21.892,23.3264Z"/><path class="cls-5" d="M20.88,22.7208a.2073.2073,0,0,1-.207.1681c-.1373-.0015-.1879-.0463-.3017-.0213-.1072-.0037-3.4742-.0007-3.8618,0h-.036c-.3861-.0007-3.7538-.0037-3.861,0-.1138-.025-.1644.02-.3024.0213a.2065.2065,0,0,1-.2063-.1681.245.245,0,0,1,.0169-.1233l.0051-.0118,4.3477.0382h.036l4.3485-.0382.0044.0118A.2522.2522,0,0,1,20.88,22.7208Z"/></g></g></svg>