<?xml version="1.0" encoding="utf-8"?>
<!-- Generator: Adobe Illustrator 24.3.0, SVG Export Plug-In . SVG Version: 6.00 Build 0)  -->
<svg version="1.1" id="Layer_1" xmlns="http://www.w3.org/2000/svg" xmlns:xlink="http://www.w3.org/1999/xlink" x="0px" y="0px"
	 viewBox="0 0 78.5 79.7" style="enable-background:new 0 0 78.5 79.7;" xml:space="preserve">
<style type="text/css">
	.st0{fill-rule:evenodd;clip-rule:evenodd;fill:#FFFFFF;filter:url(#Adobe_OpacityMaskFilter);}
	.st1{mask:url(#mask0_1_);}
	.st2{fill:#0065A9;}
	.st3{fill:#007ACC;}
	.st4{fill:#1F9CF0;}
	.st5{opacity:0.25;}
	.st6{fill-rule:evenodd;clip-rule:evenodd;fill:url(#SVGID_1_);}
</style>
<defs>
	<filter id="Adobe_OpacityMaskFilter" filterUnits="userSpaceOnUse" x="0.6" y="0.9" width="78" height="78">
		<feColorMatrix  type="matrix" values="1 0 0 0 0  0 1 0 0 0  0 0 1 0 0  0 0 0 1 0"/>
	</filter>
</defs>
<mask maskUnits="userSpaceOnUse" x="0.6" y="0.9" width="78" height="78" id="mask0_1_">
	<path class="st0" d="M55.9,78.5c1.2,0.5,2.6,0.5,3.9-0.1l16-7.8c1.7-0.8,2.8-2.5,2.8-4.4V13.5c0-1.9-1.1-3.6-2.8-4.4l-16-7.8
		c-1.6-0.8-3.5-0.6-5,0.4c-0.2,0.1-0.4,0.3-0.6,0.5L23.5,30.5L10.1,20.3c-1.2-1-3-0.9-4.1,0.2l-4.3,3.9c-1.4,1.3-1.4,3.5,0,4.8
		l11.6,10.6L1.7,50.5c-1.4,1.3-1.4,3.5,0,4.8L6,59.3c1.2,1.1,2.9,1.1,4.1,0.2l13.4-10.2l30.7,28.2C54.7,77.9,55.3,78.3,55.9,78.5z
		 M59.1,22.1L35.8,39.9l23.3,17.8V22.1z"/>
</mask>
<g class="st1">
	<path class="st2" d="M75.8,9.1L59.7,1.3c-1.9-0.9-4.1-0.5-5.5,0.9L1.6,50.5c-1.4,1.3-1.4,3.5,0,4.8l4.3,3.9
		c1.2,1.1,2.9,1.1,4.1,0.2l63.3-48.3c2.1-1.6,5.2-0.1,5.2,2.6v-0.2C78.6,11.7,77.5,9.9,75.8,9.1z"/>
	<g>
		<path class="st3" d="M75.8,70.6l-16.1,7.8c-1.9,0.9-4.1,0.5-5.5-0.9L1.6,29.2c-1.4-1.3-1.4-3.5,0-4.8l4.3-3.9
			c1.2-1.1,2.9-1.1,4.1-0.2l63.3,48.3c2.1,1.6,5.2,0.1,5.2-2.6v0.2C78.6,68.1,77.5,69.8,75.8,70.6z"/>
	</g>
	<g>
		<path class="st4" d="M59.7,78.4c-1.9,0.9-4.1,0.5-5.5-0.9c1.8,1.8,4.9,0.5,4.9-2V4.3c0-2.6-3.1-3.8-4.9-2c1.5-1.5,3.7-1.8,5.5-0.9
			l16.1,7.8c1.7,0.8,2.8,2.5,2.8,4.4v52.7c0,1.9-1.1,3.6-2.8,4.4L59.7,78.4z"/>
	</g>
	<g class="st5">
		
			<linearGradient id="SVGID_1_" gradientUnits="userSpaceOnUse" x1="39.5444" y1="80.8556" x2="39.5444" y2="2.8557" gradientTransform="matrix(1 0 0 -1 0 81.7114)">
			<stop  offset="0" style="stop-color:#FFFFFF"/>
			<stop  offset="1" style="stop-color:#FFFFFF;stop-opacity:0"/>
		</linearGradient>
		<path class="st6" d="M55.8,78.5c1.2,0.5,2.6,0.5,3.9-0.1l16-7.8c1.7-0.8,2.8-2.5,2.8-4.4V13.5c0-1.9-1.1-3.6-2.8-4.4l-16-7.8
			c-1.6-0.8-3.5-0.6-5,0.4c-0.2,0.1-0.4,0.3-0.6,0.5L23.5,30.5L10.1,20.3c-1.2-1-3-0.9-4.1,0.2l-4.3,3.9c-1.4,1.3-1.4,3.5,0,4.8
			l11.6,10.6L1.6,50.5c-1.4,1.3-1.4,3.5,0,4.8l4.3,3.9c1.2,1.1,2.9,1.1,4.1,0.2l13.4-10.2l30.7,28.2C54.7,77.9,55.2,78.3,55.8,78.5z
			 M59,22.1L35.7,39.9L59,57.7V22.1z"/>
	</g>
</g>
</svg>
