<?xml version="1.0" encoding="utf-8"?>
<!-- Generator: Adobe Illustrator 24.3.0, SVG Export Plug-In . SVG Version: 6.00 Build 0)  -->
<svg version="1.1" id="Layer_1" xmlns="http://www.w3.org/2000/svg" xmlns:xlink="http://www.w3.org/1999/xlink" x="0px" y="0px"
	 viewBox="0 0 1414.2 800" style="enable-background:new 0 0 1414.2 800;" xml:space="preserve">
<style type="text/css">
	.st0{fill:#3B4D4B;}
	.st1{fill:#FFFFFF;}
	.st2{fill:none;}
	.st3{font-family:'Montserrat'; font-weight: bold; font-style: normal;}
	.st4{font-size:655.58px;}
	.st5{fill:#007045;}
</style>
<path class="st0" d="M502.1,753.7H221.6C111.4,753.7,22,664.3,22,554.1V273.6C22,163.4,111.4,74,221.6,74h280.5
	c110.2,0,199.6,89.4,199.6,199.6v280.5C701.7,664.3,612.3,753.7,502.1,753.7z"/>
<path class="st1" d="M488.2,739.9H207.8C97.6,739.9,8.2,650.5,8.2,540.3V259.8c0-110.2,89.4-199.6,199.6-199.6h280.5
	c110.2,0,199.6,89.4,199.6,199.6v280.5C687.9,650.5,598.5,739.9,488.2,739.9z"/>
<rect x="709.5" y="0" class="st2" width="704.7" height="800"/>
<text transform="matrix(1 0 0 1 718.5275 643.2164)" class="st1 st3 st4">m</text>
<path class="st2" d="M670,762H34.5C10,762-9.8,742.2-9.8,717.7V82.3C-9.8,57.8,10.1,38,34.5,38H670c24.5,0,44.3,19.8,44.3,44.3
	v635.4C714.3,742.2,694.4,762,670,762z"/>
<text transform="matrix(1 0 0 1 125.0958 643.2164)" class="st5 st3 st4">Y</text>
</svg>
