<svg id="Layer_1" data-name="Layer 1" xmlns="http://www.w3.org/2000/svg" xmlns:xlink="http://www.w3.org/1999/xlink" viewBox="0 0 98.08 28.46"><defs><style>.cls-1,.cls-10,.cls-19,.cls-21,.cls-9{fill:none;}.cls-2{font-size:8.1px;letter-spacing:-0.13em;}.cls-2,.cls-4,.cls-5{fill:#fff;}.cls-11,.cls-12,.cls-13,.cls-14,.cls-15,.cls-16,.cls-17,.cls-18,.cls-2,.cls-22,.cls-23,.cls-24,.cls-25,.cls-26,.cls-27,.cls-28,.cls-5{font-family:TimesNewRomanPSMT, Times New Roman;}.cls-3{letter-spacing:0em;}.cls-4{stroke:#fff;stroke-width:0.25px;}.cls-10,.cls-19,.cls-21,.cls-4,.cls-9{stroke-miterlimit:10;}.cls-5{font-size:4.9px;}.cls-6{letter-spacing:-0.06em;}.cls-7{letter-spacing:-0.11em;}.cls-8{clip-path:url(#clip-path);}.cls-10,.cls-19,.cls-21,.cls-9{stroke:#f60;}.cls-9{stroke-width:0.3px;}.cls-10{stroke-width:0.2px;}.cls-11{font-size:3.5px;}.cls-11,.cls-12,.cls-13,.cls-14,.cls-15,.cls-16,.cls-17,.cls-18,.cls-20,.cls-22,.cls-23,.cls-24,.cls-25,.cls-26,.cls-27,.cls-28{fill:#f60;}.cls-12{font-size:3.5px;}.cls-13{font-size:3.5px;}.cls-14{font-size:3.5px;}.cls-15{font-size:3.5px;}.cls-16{font-size:3.5px;}.cls-17{font-size:3.5px;}.cls-18{font-size:3.5px;}.cls-19{stroke-width:0.1px;}.cls-21{stroke-width:0px;}.cls-22{font-size:3.1px;}.cls-23{font-size:3.1px;}.cls-24{font-size:3.1px;}.cls-25{font-size:3.1px;}.cls-26{font-size:3.1px;}.cls-27{font-size:3.1px;}.cls-28{font-size:3.1px;}</style><clipPath id="clip-path" transform="translate(-1.04 -0.78)"><rect class="cls-1" x="0.76" y="0.47" width="29.03" height="29.11"/></clipPath></defs><title>vandamme--white</title><text class="cls-2" transform="translate(32.51 14.72)">V<tspan class="cls-3" x="4.81" y="0">AN DAMME C.S.</tspan></text><line class="cls-4" x1="32.51" y1="16.14" x2="97.62" y2="16.14"/><text class="cls-5" transform="translate(32.51 20.76)">GERECHTSDEU<tspan class="cls-6" x="35.39" y="0">R</tspan><tspan class="cls-7" x="38.39" y="0">W</tspan><tspan x="42.47" y="0">AARDERS</tspan></text><rect class="cls-1" x="32.47" y="9.02" width="65.42" height="12.56"/><g id="embleem"><g class="cls-8"><g class="cls-8"><path class="cls-9" d="M29.35,15A14.08,14.08,0,1,1,15.27.93,14.09,14.09,0,0,1,29.35,15Z" transform="translate(-1.04 -0.78)"/><path class="cls-10" d="M28.57,15A13.31,13.31,0,1,1,15.27,1.7,13.29,13.29,0,0,1,28.57,15Z" transform="translate(-1.04 -0.78)"/></g><text class="cls-11" transform="matrix(0.33, -0.94, 0.94, 0.33, 4.81, 12.22)">V</text><text class="cls-12" transform="matrix(0.52, -0.86, 0.86, 0.52, 5.36, 10.4)">A</text><text class="cls-13" transform="translate(6.55 8.34) rotate(-44.66)">N</text><text class="cls-14" transform="translate(8.39 6.69) rotate(-35.26)"> </text><text class="cls-12" transform="matrix(0.9, -0.43, 0.43, 0.9, 8.97, 6.12)">D</text><text class="cls-15" transform="matrix(0.98, -0.2, 0.2, 0.98, 11.11, 5.05)">A</text><text class="cls-16" transform="matrix(1, 0.08, -0.08, 1, 13.39, 4.49)">M</text><text class="cls-16" transform="matrix(0.93, 0.38, -0.38, 0.93, 16.33, 4.74)">M</text><text class="cls-17" transform="translate(19.11 5.91) rotate(36.81)">E</text><text class="cls-11" transform="matrix(0.7, 0.71, -0.71, 0.7, 20.78, 7.14)"> </text><text class="cls-16" transform="matrix(0.58, 0.81, -0.81, 0.58, 21.35, 7.74)">C</text><text class="cls-18" transform="translate(22.58 9.56) rotate(63.19)">.</text><text class="cls-16" transform="translate(23.01 10.24) rotate(71.09)">S</text><text class="cls-12" transform="translate(23.55 11.94) rotate(79.13)">.</text><g class="cls-8"><circle class="cls-19" cx="14.23" cy="14.23" r="8.46"/><path class="cls-20" d="M14.3,20.37a.64.64,0,0,1-.54.93H13.6c-.09,0-.21,0-.24.12s.09.11.16.16a1,1,0,0,1,.37,1,.2.2,0,0,1-.3.14,2.56,2.56,0,0,0-.86-.19,2.08,2.08,0,0,1-.93-.39c-.18-.1-.42-.14-.48-.39a.41.41,0,0,1,0-.27,2.24,2.24,0,0,0-.17-1.84c-.11-.2-.06-.34.18-.35.43,0,.59-.28.7-.62a.75.75,0,0,0,0-.26.27.27,0,0,0-.21-.22.22.22,0,0,0-.23.12.56.56,0,0,0-.13.43c0,.07,0,.15-.06.18s-.12,0-.16-.1a.84.84,0,0,1-.16-.76,7.67,7.67,0,0,0,.11-.8A2,2,0,0,1,12,15.88a2.09,2.09,0,0,0,.72-1.07.67.67,0,0,0-.09-.46c-.07-.15-.38-.12-.47,0a.63.63,0,0,0-.09.31c0,.1,0,.24,0,.31s-.17-.07-.26-.1-.14,0-.18.1a.5.5,0,0,0,0,.38c0,.06.05.14,0,.18s-.13,0-.18-.06a.91.91,0,0,1-.28-.59,1.61,1.61,0,0,1,.17-.8,4.74,4.74,0,0,0,.26-1,1.38,1.38,0,0,1,.84-1c.06,0,.13-.06.17,0s0,.09-.08.13a2.1,2.1,0,0,0-.38.78c0,.18,0,.26.26.24a1.3,1.3,0,0,1,.68,0c.47.18.52.53.43,1a2.51,2.51,0,0,1-.54,1,1.25,1.25,0,0,0-.18,1.09.72.72,0,0,1-.26.71s-.07,0-.1,0,0-.06,0-.09l0-.16c0-.18,0-.34-.23-.38s-.27.11-.33.26a.58.58,0,0,0,.59.77,1.32,1.32,0,0,0,1-.7,2.57,2.57,0,0,0,.35-1.14.25.25,0,0,0-.25-.31c-.18,0-.24-.06-.12-.25a2.92,2.92,0,0,0,.33-1.74c0-.15-.1-.22-.25-.26a.86.86,0,0,1-.5-.34.41.41,0,0,1,0-.54,2.41,2.41,0,0,1,.41-.43.89.89,0,0,0,.4-.64c0-.16.22,0,.28,0s.1.12.19.08c.3-.14.63,0,1-.16a.41.41,0,0,1,.5.19.45.45,0,0,1,0,.55,1.75,1.75,0,0,0-.15.34.24.24,0,0,0,.06.29,1.22,1.22,0,0,0,.66.35.32.32,0,0,1,.25.4c0,.12,0,.23,0,.34s-.07.31.08.39a.57.57,0,0,0,.51,0c.1,0,.22-.21.29-.09s-.13.2-.22.27a.86.86,0,0,1-.57.06c-.17,0-.31,0-.41.18s-.19.12-.3.14l-.29.08c-.07,0-.12.08-.1.16s0,.18.15.19a.33.33,0,0,0,.2,0c.35-.21.66,0,1,.1a1.46,1.46,0,0,0,.59.08c.21,0,.43,0,.65,0a.49.49,0,0,0,.25-.1.15.15,0,0,0,.09-.15c0-.07-.08-.08-.15-.08s-.23,0-.26-.13.07-.18.16-.25.13-.23,0-.37c-.28-.43-.56-.87-.86-1.3a.94.94,0,0,1-.2-.68c0-.26.07-.52.12-.78,0-.11.09-.21.21-.12.34.27.75.48.94.91s.4.95.6,1.42c0,.1.1.21.14.31s.1.09.17.09h.26c.18,0,.27,0,.18.22a.38.38,0,0,0,.05.44,2.12,2.12,0,0,1,.27.49.53.53,0,0,1-.1.66.6.6,0,0,0-.16.36c0,.22-.1.26-.27.13l-.06,0c-.33-.27-.47-.27-.72.05a.86.86,0,0,1-.7.33h-.5c-.08,0-.16,0-.19.1s0,.11.08.17a2.39,2.39,0,0,0,.6.49.68.68,0,0,0,.54,0,.71.71,0,0,1,.81.23.9.9,0,0,1,.17,1,.57.57,0,0,1-.29.3.22.22,0,0,0-.13.23c0,.11.11.11.19.12l.14,0c.44.07.56.2.64.65,0,.22.13.43.17.65.07.42-.06.6-.49.6a.79.79,0,0,1-.63-.17.39.39,0,0,1-.07-.59l.46-.59c.15-.2.11-.32-.13-.37-.53-.11-1.07-.23-1.59-.37s-.59-.06-.49.43a2.47,2.47,0,0,1,.13.71c0,.07,0,.15-.06.21a.2.2,0,0,0,0,.29c.06.11.13.23.29.21s.17-.07.21,0,0,.14-.12.18a.17.17,0,0,0-.08.2c.05.09.13,0,.18,0,.32,0,.63-.12.89.15a.62.62,0,0,1,.18.44c0,.14-.07.21-.21.27a9.64,9.64,0,0,0-1.87.72c-.13.09-.27.07-.33-.13a2,2,0,0,0-.91-1.17c-.17-.08-.34-.11-.5-.17s-.18-.12-.13-.26.15-.31.22-.46a1.49,1.49,0,0,0-.7-1.65.2.2,0,0,0-.33.11,1.77,1.77,0,0,1-.48,1c-.11.14-.21.29,0,.44s.35.12.51-.12a.22.22,0,0,1,0-.13m2.06-2.66a.32.32,0,0,0-.3.12,1.45,1.45,0,0,1-.37.37c-.07.05-.07.11,0,.16a6,6,0,0,1,.82.69c.09.1.19.11.27,0a.64.64,0,0,1,.72-.27c.13,0,.2-.05.11-.2a2.11,2.11,0,0,0-1.26-.87m3.56,3c.32,0,.36,0,.28-.34a5.34,5.34,0,0,0-.16-.53c-.05-.15-.21-.21-.27-.1s-.27.35-.39.53-.08.26.11.33a1.19,1.19,0,0,0,.43.11m-2.6-.85a3.76,3.76,0,0,0-.17-.77.09.09,0,0,0-.16,0c-.1.13-.22.25-.14.44a1.27,1.27,0,0,1,.12.39.21.21,0,0,0,.24.18c.12,0,.11-.13.11-.2m-2.36-8a.27.27,0,0,0-.25-.32c-.12,0-.2.12-.18.25s.05.31.26.31S15,12,15,11.89m-1.07.62c.14,0,.23-.07.23-.2a.28.28,0,0,0-.24-.29.19.19,0,0,0-.21.2c0,.17.11.23.22.29m1.4-.77c.05.06-.06.25.13.24s.18-.16.18-.29-.07-.22-.19-.21-.11.14-.12.26m-2,.77c-.11,0-.15.05-.14.14a.33.33,0,0,0,.25.3c.07,0,.15,0,.13-.11s-.14-.25-.24-.33m4.81,6.43c.08,0,.18,0,.16-.12s-.14-.16-.24-.17a.13.13,0,0,0-.13.16c0,.12.12.11.21.13" transform="translate(-1.04 -0.78)"/><path class="cls-20" d="M13.29,8.54A.77.77,0,0,0,14,8.29a.67.67,0,0,1,.7-.11c.22.08.33,0,.34-.26a.48.48,0,0,1,.1-.38c.07-.06.06-.14,0-.18s-.11-.14,0-.22.07-.08.11-.12.13-.09.18,0,.09.09.15.14.11.13,0,.17-.13.14,0,.23a.44.44,0,0,1,.11.31c0,.27.16.37.41.29a.6.6,0,0,1,.68.15.9.9,0,0,0,.92.27.46.46,0,0,1,.48.21.6.6,0,0,1,.07.59,3.24,3.24,0,0,1-.52.75.51.51,0,0,0-.11.34c0,.25-.13.33-.38.26s-.51-.15-.77-.22a5,5,0,0,0-2.31,0c-.2,0-.39.13-.59.18s-.3,0-.32-.21a1.4,1.4,0,0,0-.33-.64l-.19-.24c-.13-.2-.25-.41-.13-.64a.72.72,0,0,1,.78-.47m3.25.53h0V8.91c0-.13-.06-.26-.21-.3a.31.31,0,0,0-.39.12,1.57,1.57,0,0,0-.24.82.15.15,0,0,0,.09.12c.42.22.62.12.72-.35a2.17,2.17,0,0,0,0-.25m-2-.5a.33.33,0,0,0-.31.31.78.78,0,0,0,.09.54c.07.11,0,.32.18.34a1.56,1.56,0,0,0,.42-.08h0A.15.15,0,0,0,15,9.49a4.12,4.12,0,0,0-.19-.71.34.34,0,0,0-.34-.21m3.13.82a1.32,1.32,0,0,0,0-.13A.29.29,0,0,0,17.28,9a.28.28,0,0,0-.31.3.85.85,0,0,1-.13.31c-.16.23,0,.33.14.43s.3.13.4,0a.84.84,0,0,0,.24-.63M13,9.45a.88.88,0,0,0,.16.42c.15.24.24.23.54.1s.14-.24.07-.39a1.46,1.46,0,0,1-.05-.2c-.06-.14-.09-.3-.23-.39s-.48.09-.49.46m2.37.74c.07,0,.2,0,.2-.11s-.12-.11-.21-.11-.21,0-.21.12.13.09.22.1m-1,.1c.12,0,.23,0,.26-.18a.07.07,0,0,0-.09-.09c-.11,0-.25.06-.29.19s.06.08.12.08m1.68-.16a.27.27,0,0,0,.27.19c.07,0,.15,0,.13-.09s-.21-.14-.32-.19-.08,0-.08.09m-2.25.26c0-.1-.08-.1-.14-.1a.24.24,0,0,0-.25.19s0,.08.06.07a.85.85,0,0,0,.33-.16m3.39.09c-.06-.08-.1-.21-.24-.21s-.12,0-.11.08.17.15.28.2.07,0,.07-.07" transform="translate(-1.04 -0.78)"/><path class="cls-21" d="M28.57,15A13.31,13.31,0,1,1,15.27,1.7,13.29,13.29,0,0,1,28.57,15Z" transform="translate(-1.04 -0.78)"/></g><text class="cls-22" transform="translate(2.03 13.99) rotate(85.64)">G</text><text class="cls-23" transform="translate(2.35 16.95) rotate(74.11)">e</text><text class="cls-23" transform="translate(2.91 18.76) rotate(65.82)">r</text><text class="cls-24" transform="translate(3.61 20.14) rotate(57.65)">e</text><text class="cls-22" transform="matrix(0.66, 0.75, -0.75, 0.66, 4.64, 21.74)">c</text><text class="cls-25" transform="matrix(0.78, 0.63, -0.63, 0.78, 5.97, 23.25)">h</text><text class="cls-25" transform="matrix(0.86, 0.51, -0.51, 0.86, 7.64, 24.47)">t</text><text class="cls-26" transform="translate(8.86 25.13) rotate(23.66)">s</text><text class="cls-27" transform="translate(10.47 25.91) rotate(14.37)">d</text><text class="cls-25" transform="translate(12.6 26.32) rotate(4.73)">e</text><text class="cls-25" transform="translate(14.48 26.49) rotate(-4.73)">u</text><text class="cls-27" transform="translate(16.58 26.2) rotate(-13.57)">r</text><text class="cls-23" transform="translate(18.19 25.83) rotate(-24.18)">w</text><text class="cls-22" transform="translate(20.79 24.52) rotate(-35.6)">a</text><text class="cls-28" transform="matrix(0.71, -0.7, 0.7, 0.71, 22.31, 23.37)">a</text><text class="cls-27" transform="translate(23.67 21.98) rotate(-52.76)">r</text><text class="cls-27" transform="translate(24.52 20.69) rotate(-61.45)">d</text><text class="cls-27" transform="translate(25.5 18.75) rotate(-71.09)">e</text><text class="cls-24" transform="matrix(0.19, -0.98, 0.98, 0.19, 26.1, 17.06)">r</text><text class="cls-27" transform="translate(26.35 15.41) rotate(-87.08)">s</text></g></g></svg>