<?xml version="1.0" encoding="utf-8"?>
<!-- Generator: Adobe Illustrator 22.0.1, SVG Export Plug-In . SVG Version: 6.00 Build 0)  -->
<svg version="1.1" id="Layer_1" xmlns="http://www.w3.org/2000/svg" xmlns:xlink="http://www.w3.org/1999/xlink" x="0px" y="0px"
	 viewBox="0 0 99.8968964 30.1540222" style="enable-background:new 0 0 99.8968964 30.1540222;" xml:space="preserve">
<style type="text/css">
	.st0{display:none;}
	.st1{display:inline;}
	.st2{display:inline;clip-path:url(#SVGID_2_);}
	.st3{clip-path:url(#SVGID_4_);}
	.st4{fill:#2972A3;}
	.st5{font-family:'TimesNewRomanPSMT';}
	.st6{font-size:8.1000004px;}
	.st7{letter-spacing:-1;}
	.st8{clip-path:url(#SVGID_4_);fill:none;stroke:#43ABD6;stroke-width:0.25;stroke-miterlimit:10;}
	.st9{font-size:4.9000001px;}
	.st10{clip-path:url(#SVGID_6_);}
	.st11{clip-path:url(#SVGID_8_);fill:none;stroke:#FF6600;stroke-width:0.3;stroke-miterlimit:10;}
	.st12{clip-path:url(#SVGID_8_);fill:none;stroke:#FF6600;stroke-width:0.2;stroke-miterlimit:10;}
	.st13{fill:#FF6600;}
	.st14{font-size:3.49998px;}
	.st15{font-size:3.50001px;}
	.st16{font-size:3.4999599px;}
	.st17{font-size:3.5000401px;}
	.st18{font-size:3.49999px;}
	.st19{font-size:3.49997px;}
	.st20{font-size:3.5px;}
	.st21{font-size:3.5000601px;}
	.st22{clip-path:url(#SVGID_10_);fill:none;stroke:#FF6600;stroke-width:0.1;stroke-miterlimit:10;}
	.st23{clip-path:url(#SVGID_10_);fill:#FF6600;}
	.st24{clip-path:url(#SVGID_10_);fill:none;stroke:#FF6600;stroke-width:0.001;stroke-miterlimit:10;}
	.st25{font-size:3.0999801px;}
	.st26{font-size:3.10004px;}
	.st27{font-size:3.0999899px;}
	.st28{font-size:3.0999601px;}
	.st29{font-size:3.0999999px;}
	.st30{font-size:3.1000199px;}
	.st31{font-size:3.1000099px;}
	.st32{clip-path:url(#SVGID_12_);}
	.st33{clip-path:url(#SVGID_14_);}
	.st34{clip-path:url(#SVGID_14_);fill:none;stroke:#2972A3;stroke-width:0.25;stroke-miterlimit:10;}
</style>
<image style="display:none;overflow:visible;" width="460" height="143" xlink:href="97CE4415.png"  transform="matrix(0.24 0 0 0.24 -1.4316381 -0.6680248)">
</image>
<g class="st0">
	<defs>
		<rect id="SVGID_1_" x="33.5069923" y="9.7925739" width="65.4243011" height="12.5556946"/>
	</defs>
	<clipPath id="SVGID_2_" class="st1">
		<use xlink:href="#SVGID_1_"  style="overflow:visible;"/>
	</clipPath>
	<g class="st2">
		<defs>
			<rect id="SVGID_3_" x="33.5069923" y="9.7922688" width="65.4240036" height="12.5559998"/>
		</defs>
		<clipPath id="SVGID_4_">
			<use xlink:href="#SVGID_3_"  style="overflow:visible;"/>
		</clipPath>
		<g class="st3">
			<text transform="matrix(1 0 0 1 33.5470314 15.5006151)"><tspan x="0" y="0" class="st4 st5 st6 st7">V</tspan><tspan x="4.8129883" y="0" class="st4 st5 st6">AN DAMME C.S.</tspan></text>
		</g>
		<line class="st8" x1="33.5470924" y1="16.9200687" x2="98.6560822" y2="16.9200687"/>
		<g class="st3">
			<text transform="matrix(1 0 0 1 33.5470314 21.5406551)"><tspan x="0" y="0" class="st4 st5 st9">GERECHTSDEU</tspan><tspan x="35.3886719" y="0" class="st4 st5 st9">R</tspan><tspan x="38.387207" y="0" class="st4 st5 st9">W</tspan><tspan x="42.4731445" y="0" class="st4 st5 st9">AARDERS</tspan></text>
		</g>
	</g>
</g>
<g>
	<g>
		<defs>
			<rect id="SVGID_5_" x="0.7556373" y="0.4652366" width="29.0254059" height="29.1119995"/>
		</defs>
		<clipPath id="SVGID_6_">
			<use xlink:href="#SVGID_5_"  style="overflow:visible;"/>
		</clipPath>
		<g class="st10">
			<defs>
				<rect id="SVGID_7_" x="0.7556373" y="0.4652366" width="29.0249996" height="29.1119995"/>
			</defs>
			<clipPath id="SVGID_8_">
				<use xlink:href="#SVGID_7_"  style="overflow:visible;"/>
			</clipPath>
			<path class="st11" d="M29.346138,15.0069361c0,7.776-6.3040009,14.079999-14.0800009,14.079999
				S1.1861373,22.7829361,1.1861373,15.0069361S7.4901361,0.9259357,15.2661371,0.9259357S29.346138,7.2309361,29.346138,15.0069361
				z"/>
			<path class="st12" d="M28.5746384,15.0069361c0,7.3499994-5.9590015,13.3079996-13.309001,13.3079996
				S1.957637,22.3569355,1.957637,15.0069361S7.915637,1.697937,15.2656374,1.697937S28.5746384,7.6569366,28.5746384,15.0069361z"
				/>
		</g>
		<g class="st10">
			<text transform="matrix(0.33277 -0.94301 0.94301 0.33277 5.8482814 12.9917831)" class="st13 st5 st14">V</text>
		</g>
		<g class="st10">
			<text transform="matrix(0.51703 -0.85597 0.85597 0.51703 6.3969188 11.1777172)" class="st13 st5 st15">A</text>
		</g>
		<g class="st10">
			<text transform="matrix(0.7112699 -0.70292 0.70292 0.7112699 7.5908275 9.1193914)" class="st13 st5 st16">N</text>
		</g>
		<g class="st10">
			<text transform="matrix(0.81651 -0.57734 0.57734 0.81651 9.4235277 7.4615541)" class="st13 st5 st17"> </text>
		</g>
		<g class="st10">
			<text transform="matrix(0.9019699 -0.4318 0.4318 0.9019699 10.0046129 6.8928957)" class="st13 st5 st15">D</text>
		</g>
		<g class="st10">
			<text transform="matrix(0.9802299 -0.19786 0.19786 0.9802299 12.1444349 5.8284693)" class="st13 st5 st18">A</text>
		</g>
		<g class="st10">
			<text transform="matrix(0.99709 0.07617 -0.07617 0.99709 14.4280434 5.2681141)" class="st13 st5 st19">M</text>
		</g>
		<g class="st10">
			<text transform="matrix(0.9266599 0.37589 -0.37589 0.9266599 17.3622589 5.5183949)" class="st13 st5 st19">M</text>
		</g>
		<g class="st10">
			<text transform="matrix(0.8006 0.5992 -0.5992 0.8006 20.1510735 6.6842732)" class="st13 st5 st20">E</text>
		</g>
		<g class="st10">
			<text transform="matrix(0.70498 0.7092299 -0.7092299 0.70498 21.8154259 7.9115396)" class="st13 st5 st14"> </text>
		</g>
		<g class="st10">
			<text transform="matrix(0.58472 0.81124 -0.81124 0.58472 22.3863316 8.5110836)" class="st13 st5 st19">C</text>
		</g>
		<g class="st10">
			<text transform="matrix(0.45099 0.89253 -0.89253 0.45099 23.6188164 10.3361826)" class="st13 st5 st21">.</text>
		</g>
		<g class="st10">
			<text transform="matrix(0.32406 0.94604 -0.94604 0.32406 24.0487499 11.0203018)" class="st13 st5 st19">S</text>
		</g>
		<g class="st10">
			<text transform="matrix(0.1886 0.9820499 -0.9820499 0.1886 24.5841694 12.7195339)" class="st13 st5 st15">.</text>
		</g>
		<g class="st10">
			<defs>
				<rect id="SVGID_9_" x="0.7556373" y="0.4652366" width="29.0249996" height="29.1119995"/>
			</defs>
			<clipPath id="SVGID_10_">
				<use xlink:href="#SVGID_9_"  style="overflow:visible;"/>
			</clipPath>
			<circle class="st22" cx="15.266037" cy="15.0069361" r="8.46"/>
			<path class="st23" d="M14.2951365,20.3721352c0.2030001,0.4379997-0.0550003,0.882-0.5310001,0.9320011
				c-0.0549994,0.0059986-0.1049995,0-0.1599998,0.0059986c-0.099,0.0060005-0.2159996-0.0059986-0.2469997,0.1170006
				c-0.0250006,0.1170006,0.0929995,0.1170006,0.1599998,0.1599998c0.2779999,0.1610012,0.4820004,0.6790009,0.3769999,0.9750004
				c-0.0489998,0.1420002-0.1539993,0.2040005-0.309,0.1359997c-0.2709999-0.1170006-0.5549994-0.1730003-0.8509998-0.1849995
				c-0.3640003-0.0130005-0.6409998-0.2339993-0.9370003-0.3950005c-0.1799994-0.098999-0.4139996-0.1420002-0.4819994-0.3889999
				c-0.0240002-0.0919991-0.0310001-0.171999-0.0060005-0.2649994c0.191-0.6350002,0.1669998-1.2520008-0.1659994-1.8439999
				c-0.1170006-0.2040005-0.0620003-0.3390007,0.1719999-0.3460007c0.4379997-0.0060005,0.599-0.282999,0.7039995-0.6289997
				c0.0240002-0.0799999,0.0240002-0.1660004,0.0120001-0.2530003c-0.0179996-0.1170006-0.0929995-0.1970005-0.21-0.2220001
				c-0.099-0.0240002-0.1789999,0.0370007-0.2340002,0.118c-0.0929995,0.1280003-0.1479998,0.2639999-0.1300001,0.4309998
				c0.0070009,0.0680008,0.0310001,0.1540012-0.0549994,0.1790009c-0.0740004,0.0179996-0.1230001-0.0430012-0.1669998-0.0990009
				c-0.1850004-0.2279987-0.2160006-0.493-0.1600008-0.7639999c0.0490007-0.2659988,0.1050005-0.5310001,0.1110001-0.7959995
				c0.0120001-0.592001,0.382-0.9750004,0.7650003-1.3579998c0.3079996-0.3070002,0.6289997-0.6040001,0.7220001-1.0669994
				c0.0369997-0.1780005-0.0249996-0.3200006-0.0930004-0.4620008c-0.0739994-0.1539993-0.382-0.1239996-0.4689999,0.0370007
				c-0.0489998,0.092-0.092,0.191-0.092,0.3079996c0,0.1050005,0.0430002,0.2410002-0.0439997,0.309
				c-0.0980005,0.0799999-0.1660004-0.0619993-0.2530003-0.0929995c-0.0979996-0.0370007-0.1409998,0.0190001-0.1779995,0.099
				c-0.0560007,0.1230001-0.0500002,0.2529993-0.007,0.382c0.0190001,0.0559998,0.0559998,0.1359997-0.0050001,0.1729994
				c-0.0679998,0.0430002-0.1360006-0.0120001-0.1800003-0.0619993c-0.1540003-0.1599998-0.2709999-0.3450003-0.283-0.5860004
				c-0.0190001-0.283,0.0550003-0.5430002,0.1660004-0.7959995c0.1479998-0.3140001,0.1969995-0.6599998,0.2649994-0.9990005
				c0.0930004-0.4749985,0.408-0.7950001,0.8400002-0.9989986c0.0550003-0.0240002,0.1289997-0.0560017,0.1719999,0
				c0.0559998,0.0799999-0.0550003,0.0929985-0.0859995,0.1359997c-0.1730003,0.2399998-0.309,0.493-0.3760004,0.782999
				c-0.0439997,0.1730003,0.0489998,0.2590008,0.2580004,0.2340012c0.2290001-0.0300007,0.4689999-0.0670013,0.6849995,0.0189991
				c0.4689999,0.1849995,0.5120001,0.5359993,0.4260006,1.0179996c-0.0740004,0.401-0.302,0.7340002-0.5370007,1.0550003
				c-0.2529993,0.3450003-0.2769995,0.7029991-0.1789999,1.0909996c0.0559998,0.2350006-0.0609999,0.5860004-0.2589998,0.7099991
				c-0.0369997,0.0180016-0.0740004,0.0430012-0.1040001,0.0180016c-0.0190001-0.012001-0.0190001-0.0550003-0.0190001-0.0860004
				c0.0060005-0.0559998,0.0190001-0.1049995,0.0250006-0.1599998c0.0179996-0.1860008-0.0500002-0.3400002-0.2230005-0.3830013
				c-0.1719999-0.0369987-0.2769995,0.1110001-0.3330002,0.2590008c-0.1479998,0.3770008,0.1730003,0.8029995,0.5860004,0.7709999
				c0.4819994-0.0370007,0.7959995-0.3199997,1.0369997-0.7029991c0.2160006-0.3460007,0.302-0.7340012,0.3450003-1.1350002
				c0.0190001-0.1850004-0.0489998-0.2960005-0.2460003-0.3079996c-0.1800003-0.0130005-0.2469997-0.0620003-0.1239996-0.2590008
				c0.3330002-0.5310001,0.3639994-1.1289997,0.3330002-1.7340002c-0.0060005-0.1539993-0.1040001-0.2219982-0.2470007-0.2649994
				c-0.191-0.0620003-0.382-0.1359997-0.5050001-0.3330002c-0.1239996-0.2039986-0.1049995-0.3759995,0.0430002-0.5429993
				c0.1350002-0.1480007,0.2469997-0.3330002,0.4070005-0.4320011c0.2529993-0.1539993,0.3389997-0.3579998,0.401-0.6349983
				c0.0369997-0.1610012,0.2159996-0.0310001,0.2839994,0.0489998c0.0550003,0.0679989,0.0979996,0.118,0.1850004,0.0809994
				c0.302-0.1429996,0.6349993-0.0499992,0.9499998-0.1669998c0.191-0.0739994,0.3759995,0.0119991,0.5,0.191
				c0.1230001,0.1789989,0.1659994,0.3579998,0.0369997,0.5550003c-0.0690002,0.098999-0.0929995,0.2220001-0.1490002,0.3339996
				c-0.0500002,0.0979996-0.0240002,0.1970005,0.0620003,0.2950001c0.1730003,0.2099991,0.4200001,0.2779999,0.6599998,0.3460007
				c0.2160015,0.0619984,0.2660007,0.2029991,0.2530003,0.4009991c-0.0060005,0.1170006-0.0310001,0.2280006-0.0369987,0.3449993
				c-0.0060005,0.1360006-0.0620003,0.3030005,0.0799999,0.3830004c0.1599998,0.092,0.3459988,0.0740004,0.5129986,0.0059996
				c0.0979996-0.0439997,0.2210007-0.21,0.2890015-0.0929995c0.0739994,0.1300001-0.1230011,0.2039995-0.2220001,0.2720003
				c-0.1730003,0.1229992-0.3760014,0.0679998-0.5620003,0.0619993c-0.1720009-0.007-0.3140011,0-0.4130001,0.1719999
				c-0.0550003,0.1050005-0.191,0.1240005-0.302001,0.1480007c-0.099,0.0249996-0.198,0.0499992-0.2889996,0.0809994
				c-0.0690002,0.0240002-0.118,0.0799999-0.099,0.1599998c0.0169992,0.0800009,0.0429993,0.1730003,0.1469994,0.1850004
				c0.0690002,0.0059996,0.1550007,0.0249996,0.2040005-0.0059996c0.3520012-0.2160006,0.6599998-0.0560007,0.9750004,0.0979996
				c0.1849995,0.0930004,0.3950005,0.0679998,0.5919991,0.0799999c0.2160015,0.0130005,0.4310017-0.0170002,0.6470013-0.0299997
				c0.0930004-0.0060005,0.1789989-0.0500002,0.2530003-0.099c0.0499992-0.0370007,0.105999-0.0740004,0.0869999-0.1479998
				c-0.0180016-0.0740004-0.0799999-0.0860004-0.1480007-0.0860004c-0.1119995,0-0.2290001,0.0120001-0.2590008-0.1300001
				c-0.0309982-0.1289997,0.0740013-0.1789999,0.1660004-0.2469997c0.1359997-0.0980005,0.1240005-0.2340002,0.0370007-0.3699999
				c-0.2830009-0.4310007-0.5610008-0.8760004-0.8570004-1.3009996c-0.1480007-0.210001-0.2409992-0.4260006-0.2029991-0.6849995
				c0.0369987-0.2590008,0.0669994-0.5180016,0.1169987-0.7770004c0.0180016-0.1110001,0.0910015-0.210001,0.210001-0.1230011
				c0.3439999,0.2709999,0.7519989,0.4810009,0.9370003,0.9180012c0.1969986,0.4689999,0.4009991,0.9440002,0.6049995,1.4130001
				c0.0429993,0.1049986,0.0979996,0.2099991,0.1410007,0.3149986c0.0309982,0.0799999,0.098999,0.092,0.1729984,0.0860004
				c0.0860004-0.0060005,0.1660004-0.0060005,0.2530003-0.0120001c0.1790009-0.0120001,0.2720013,0.0240002,0.1790009,0.2279997
				c-0.0690002,0.1420002-0.0690002,0.283,0.0499992,0.4320002c0.1170006,0.1479998,0.203001,0.3210001,0.2770004,0.493
				c0.1040001,0.2340002,0.0919991,0.4689999-0.0990009,0.6599998c-0.1049995,0.1050005-0.1479988,0.2220001-0.1609993,0.3639994
				c-0.0170002,0.2220001-0.1040001,0.2530003-0.2770004,0.1289997c-0.0189991-0.0109997-0.0369987-0.0239983-0.0559998-0.0429993
				c-0.3330002-0.270999-0.4750004-0.270999-0.7220001,0.0559998c-0.184,0.2399998-0.4189987,0.3199997-0.6959991,0.3269997
				c-0.1669998,0.0060005-0.3400002,0-0.5060005,0.0060005c-0.0809994,0-0.1609993,0.0130005-0.191,0.0990009
				c-0.0310001,0.0799999,0.0370007,0.1169987,0.0799999,0.1729984c0.1660004,0.210001,0.3889999,0.3450012,0.6040001,0.4870014
				c0.1660004,0.1040001,0.3579998,0.0669994,0.5370007,0.0179996c0.3209991-0.092001,0.6169987-0.0370007,0.8139992,0.2220001
				c0.2159996,0.2779999,0.3269997,0.6110001,0.1730003,0.9689999c-0.0620003,0.1410007-0.1660004,0.2399998-0.2959995,0.3080006
				c-0.0930004,0.0489998-0.1420002,0.1299992-0.1300011,0.2290001c0.0130005,0.1099987,0.1170006,0.1040001,0.1970005,0.1169987
				c0.0440006,0.0060005,0.0930004,0.012001,0.1359997,0.019001c0.4440002,0.073,0.5620003,0.2029991,0.6359997,0.6529999
				c0.0370007,0.2229996,0.1360016,0.4259987,0.1730003,0.6479988c0.0670013,0.4190006-0.0620003,0.5980015-0.493,0.6040001
				c-0.2229996,0.007-0.4449997-0.0059986-0.6240005-0.171999c-0.2039986-0.191-0.2279987-0.3700008-0.0679989-0.5869999
				c0.1539993-0.203001,0.309-0.3999996,0.4559994-0.5970001c0.1490002-0.198,0.1060009-0.3150005-0.1289997-0.3649998
				c-0.5300007-0.1170006-1.0669994-0.2340012-1.5919991-0.3700008c-0.493-0.1299992-0.585001-0.0669994-0.4870014,0.4320011
				c0.0500011,0.2339993,0.1490002,0.4569988,0.1230011,0.7029991c-0.0060005,0.0739994,0.0129986,0.1539993-0.0540009,0.2159996
				c-0.105999,0.0869999-0.0869999,0.191-0.0259991,0.2900009c0.0690002,0.1110001,0.1299992,0.2279987,0.296999,0.2099991
				c0.0670013-0.0059986,0.1660004-0.0739994,0.203001,0.0310001c0.0310001,0.0799999-0.0430012,0.1359997-0.1110001,0.1790009
				c-0.0740013,0.0429993-0.1170006,0.1229992-0.0799999,0.1969986c0.0429993,0.0930004,0.1239986,0.0130005,0.1779995,0
				c0.316-0.0369987,0.6299992-0.1229992,0.8889999,0.1540012c0.1170006,0.1229992,0.1790009,0.2649994,0.1790009,0.4379997
				c0,0.1420002-0.0740013,0.2099991-0.210001,0.2649994c-0.6159992,0.2590008-1.3010006,0.3330002-1.8689995,0.7220001
				c-0.1289997,0.0860004-0.2709999,0.0739994-0.3330002-0.1299992c-0.1599998-0.4990005-0.4440002-0.8999996-0.9130011-1.1650009
				c-0.1609993-0.0869999-0.3329992-0.118-0.4989996-0.1730003c-0.1420002-0.0489998-0.1730003-0.1239986-0.1239996-0.2649994
				c0.0559998-0.1599998,0.1479998-0.302,0.2159996-0.4559994c0.2589998-0.6300011-0.2410002-1.3700008-0.6969995-1.6540012
				c-0.1420002-0.0919991-0.3210001-0.0309982-0.3270006,0.118c-0.0190001,0.4130001-0.2589998,0.7080002-0.4869995,1.0170002
				c-0.1050005,0.1420002-0.21,0.2900009-0.0310001,0.4379997c0.2039995,0.1610012,0.3579998,0.118,0.5120001-0.118
				C14.2581367,20.4471359,14.2701368,20.4151363,14.2951365,20.3721352 M16.3551369,17.7131367
				c-0.1170006-0.0060005-0.2350006,0.0189991-0.2959995,0.1119995c-0.0990009,0.1479988-0.2220011,0.2709999-0.3700008,0.3699989
				c-0.0740004,0.0500011-0.0740004,0.1170006,0.0059996,0.1669998c0.3080015,0.1900005,0.5680017,0.4430008,0.8210001,0.6900005
				c0.092001,0.0930004,0.1970005,0.1119995,0.2709999,0c0.1790009-0.2589989,0.4140015-0.3330002,0.7220001-0.2709999
				c0.1290016,0.0240002,0.203001-0.0489998,0.1100006-0.198C17.3241367,18.1091366,16.8731365,17.8561363,16.3551369,17.7131367
				 M19.9201374,20.7371349c0.3149986,0.0060005,0.3589993-0.0499992,0.2789993-0.3339996
				c-0.0499992-0.1789989-0.0930004-0.3579998-0.1550007-0.5310001c-0.0549984-0.1539993-0.2099991-0.2150002-0.2709999-0.1040001
				c-0.1119995,0.1970005-0.2719994,0.3520012-0.3889999,0.5360012c-0.0869999,0.1359997-0.0799999,0.2600002,0.1050014,0.3209991
				C19.6371365,20.6811352,19.7791367,20.7481365,19.9201374,20.7371349 M17.3181362,19.8851357
				c-0.007-0.2770004-0.1119995-0.5179996-0.1669998-0.7639999c-0.0189991-0.0820007-0.098999-0.1119995-0.1599998-0.0380001
				c-0.1049995,0.1230011-0.2220001,0.2469997-0.1420002,0.4320011c0.0559998,0.1289997,0.1040001,0.2529984,0.1230011,0.3949986
				c0.0189991,0.1230011,0.1169987,0.191,0.2339993,0.1780014C17.3291378,20.0701351,17.3181362,19.9591351,17.3181362,19.8851357
				 M14.9611368,11.8911362c0.0059996-0.1789989-0.0799999-0.3150005-0.2530003-0.3209991
				c-0.1169996-0.007-0.2030001,0.1229992-0.1789999,0.2460003c0.0249996,0.1419983,0.0489998,0.3149986,0.2589998,0.3149986
				C14.9551363,12.1311359,14.9611368,12.0081367,14.9611368,11.8911362 M13.8941364,12.5071373
				c0.1360006-0.012001,0.2280006-0.0680008,0.2280006-0.1970005c0-0.1599998-0.1050005-0.2709999-0.2470007-0.2900009
				c-0.1049995-0.0119991-0.2030001,0.0680008-0.2089996,0.198C13.6531363,12.3901367,13.7831364,12.4461365,13.8941364,12.5071373
				 M15.294136,11.7361374c0.0500002,0.0619984-0.0679998,0.2529984,0.1230001,0.2409992
				c0.1240005-0.0060005,0.1789999-0.1539993,0.1789999-0.2840004c0-0.1229992-0.0669994-0.2220001-0.191-0.2159996
				C15.2691364,11.4901371,15.3001366,11.6191368,15.294136,11.7361374 M13.3261366,12.5141373
				c-0.1049995,0-0.1420002,0.0489998-0.1350002,0.1350002c0.0060005,0.1609993,0.1050005,0.2529984,0.2460003,0.2959995
				c0.0749998,0.0249996,0.1479998-0.0179996,0.1359997-0.1040001
				C13.5551367,12.6741371,13.4311371,12.5941372,13.3261366,12.5141373 M18.1381378,18.9351349
				c0.0799999-0.0059986,0.1789989-0.0129986,0.1599998-0.1109982c-0.0180016-0.118-0.1360016-0.1660004-0.2400017-0.1730003
				c-0.0929985-0.0060005-0.1359997,0.0739994-0.1299992,0.1539993
				C17.9411373,18.9291363,18.051136,18.9221363,18.1381378,18.9351349"/>
			<path class="st23" d="M13.2898369,8.5411377c0.2589998,0.0929985,0.4989996-0.0370007,0.7519999-0.2530003
				c0.1789999-0.1540012,0.4379997-0.2040005,0.6970005-0.1110001c0.2229996,0.0799999,0.3329992-0.012001,0.3399992-0.2530003
				c0.0060005-0.1350002-0.0129995-0.2709999,0.1040001-0.382c0.0679998-0.0620003,0.0559998-0.1420002-0.0429993-0.1849995
				c-0.1480007-0.0680008-0.1110001-0.1420002-0.0060005-0.2160015c0.0489998-0.0310001,0.0679998-0.0799999,0.1049995-0.118
				c0.0560007-0.0609989,0.1360006-0.0979996,0.1790009,0.007c0.0309992,0.0740013,0.092,0.0930004,0.1479998,0.1350002
				c0.0859995,0.0620003,0.1110001,0.1359997-0.0240002,0.1790009c-0.118,0.0440006-0.1300001,0.1359997-0.0500002,0.2220001
				c0.0860004,0.0930004,0.0980005,0.198,0.1110001,0.3150005c0.0190001,0.2709999,0.1540003,0.3699989,0.4070015,0.2839985
				c0.2649994-0.0929985,0.4939995-0.0310001,0.6779995,0.1540012c0.2659988,0.2589989,0.5559998,0.3579998,0.9200001,0.2709999
				c0.1899986-0.0430012,0.3570004,0.0439987,0.480999,0.2099991c0.1289997,0.1849995,0.1480007,0.3759995,0.0680008,0.5860004
				c-0.1110001,0.2959995-0.3330002,0.5119991-0.519001,0.7530003c-0.0799999,0.1049995-0.1099987,0.2099991-0.1099987,0.3389988
				c0,0.2470016-0.1300011,0.3270016-0.3770008,0.2650013c-0.2589989-0.0680008-0.5119991-0.1540012-0.7700005-0.2220001
				c-0.7779999-0.1970005-1.5429993-0.1230011-2.3079996,0.0370007c-0.2030001,0.0439987-0.3950005,0.1299992-0.592,0.1849995
				c-0.2159996,0.0620003-0.2959995,0.0060005-0.3210001-0.2089996c-0.0299997-0.2530003-0.1849995-0.4510002-0.3330002-0.6480007
				c-0.0619993-0.0799999-0.1300001-0.1550007-0.1849995-0.2350006c-0.1350002-0.1969986-0.2530003-0.4069996-0.1300001-0.6409988
				C12.6418371,8.7201366,12.8578367,8.5101376,13.2898369,8.5411377 M16.5408363,9.0721378h-0.0129986
				c0-0.0560017,0.007-0.1120014,0-0.1610012c-0.019001-0.1289997-0.0620003-0.2589989-0.210001-0.302
				c-0.1529999-0.0429993-0.2959995-0.0249996-0.3880005,0.1170006c-0.1539993,0.2530003-0.2349997,0.5240002-0.2409992,0.8199997
				c0,0.0559998,0.0369997,0.0930004,0.0929995,0.1240005c0.4190016,0.2159996,0.6230001,0.1169987,0.7160006-0.3520012
				C16.5158367,9.2381363,16.5278378,9.1521378,16.5408363,9.0721378 M14.492837,8.5721378
				c-0.1669998,0.0119991-0.29,0.1169987-0.3150005,0.3079987c-0.0249996,0.1850014-0.0120001,0.3770008,0.0930004,0.5370007
				c0.073,0.1110001-0.007,0.3209991,0.1780005,0.3390007c0.1419992,0.0129986,0.2839994-0.0430012,0.4259996-0.0740013
				c0.0059996,0,0.0120001-0.0059986,0.0249996-0.0059986c0.0980005-0.0250015,0.1420002-0.1050014,0.1170006-0.191
				c-0.0679998-0.2350006-0.0799999-0.4810009-0.191-0.710001C14.7578363,8.6401367,14.6648369,8.5721378,14.492837,8.5721378
				 M17.6198368,9.393137c0-0.007-0.0119991-0.0680008-0.0249996-0.1359997
				C17.5638371,9.084137,17.459837,8.9791374,17.280838,8.9791374c-0.191,0-0.2960014,0.1049995-0.3150005,0.2959995
				c-0.012001,0.118-0.0610008,0.2280006-0.1289997,0.3150005c-0.1610012,0.2279987-0.0380001,0.3330002,0.1479988,0.4259987
				c0.1359997,0.0670013,0.2960014,0.1350002,0.4000015,0C17.5148373,9.8611374,17.6378365,9.6821365,17.6198368,9.393137
				 M12.9808369,9.4481373c0,0.1170006,0.0679998,0.2779999,0.1610003,0.4260006
				c0.1479998,0.2339993,0.2339993,0.2279987,0.5359993,0.0919991c0.2350006-0.1110001,0.1420002-0.2399998,0.0750008-0.3880005
				c-0.0320005-0.0620003-0.0320005-0.1359997-0.0560007-0.198c-0.0559998-0.1420002-0.0859995-0.302-0.2220001-0.3889999
				C13.2528372,8.8681374,12.9868374,9.084137,12.9808369,9.4481373 M15.3498363,10.1881371
				c0.0740004-0.0119991,0.2030001,0.0189991,0.2030001-0.1049995c0-0.1170006-0.1230001-0.1110001-0.2149992-0.1110001
				c-0.0870008,0-0.21-0.0060005-0.2040005,0.1169987C15.1468372,10.2071362,15.2568369,10.1821365,15.3498363,10.1881371
				 M14.3748369,10.2931366c0.118-0.0189991,0.2290001-0.0429993,0.2589998-0.1789989
				c0.0130005-0.0680008-0.0369997-0.1110001-0.092-0.0930004c-0.1110001,0.0380001-0.2469997,0.0620003-0.29,0.1859989
				C14.2208366,10.2931366,14.3138371,10.2931366,14.3748369,10.2931366 M16.0478363,10.1261368
				c0.0420017,0.1300011,0.1470013,0.1849995,0.2770004,0.1919994c0.0670013,0.0060005,0.1470013-0.0189991,0.1289997-0.0869999
				c-0.0359993-0.1659985-0.2089996-0.1420002-0.3259983-0.191C16.077837,10.0211372,16.0478363,10.0711365,16.0478363,10.1261368
				 M13.801837,10.386137c-0.0190001-0.0990009-0.0810003-0.0990009-0.1420002-0.0990009
				c-0.1359997,0-0.21,0.0740013-0.2469997,0.191c-0.0120001,0.0430012,0.0310001,0.0860004,0.0619993,0.0680008
				C13.5918369,10.4971371,13.7208366,10.4781361,13.801837,10.386137 M17.1938381,10.4781361
				c-0.0670013-0.0799999-0.0990009-0.2089996-0.2400017-0.2089996c-0.0559998,0-0.1229992,0.0240002-0.1119995,0.085001
				c0.026001,0.1429996,0.1669998,0.1490002,0.2789993,0.1919994
				C17.1508369,10.5581379,17.1938381,10.5401363,17.1938381,10.4781361"/>
			<path class="st24" d="M28.5746384,15.0069361c0,7.3499994-5.9590015,13.3079996-13.309001,13.3079996
				S1.957637,22.3569355,1.957637,15.0069361S7.915637,1.697937,15.2656374,1.697937S28.5746384,7.6569366,28.5746384,15.0069361z"
				/>
		</g>
		<g class="st10">
			<text transform="matrix(0.07607 0.9971001 -0.9971001 0.07607 3.0637531 14.7649689)" class="st13 st5 st25">G</text>
		</g>
		<g class="st10">
			<text transform="matrix(0.27377 0.9618 -0.9618 0.27377 3.3836188 17.730217)" class="st13 st5 st26">e</text>
		</g>
		<g class="st10">
			<text transform="matrix(0.40964 0.9122499 -0.9122499 0.40964 3.9502709 19.5374794)" class="st13 st5 st26">r</text>
		</g>
		<g class="st10">
			<text transform="matrix(0.5350699 0.8448101 -0.8448101 0.5350699 4.641767 20.9168091)" class="st13 st5 st27">e</text>
		</g>
		<g class="st10">
			<text transform="matrix(0.66165 0.74981 -0.74981 0.66165 5.6732836 22.5110397)" class="st13 st5 st25">c</text>
		</g>
		<g class="st10">
			<text transform="matrix(0.77685 0.62969 -0.62969 0.77685 7.008678 24.023592)" class="st13 st5 st28">h</text>
		</g>
		<g class="st10">
			<text transform="matrix(0.85827 0.5132 -0.5132 0.85827 8.677928 25.2440815)" class="st13 st5 st28">t</text>
		</g>
		<g class="st10">
			<text transform="matrix(0.9159399 0.40132 -0.40132 0.9159399 9.8928041 25.9030418)" class="st13 st5 st29">s</text>
		</g>
		<g class="st10">
			<text transform="matrix(0.96874 0.2481 -0.2481 0.96874 11.507679 26.6845055)" class="st13 st5 st30">d</text>
		</g>
		<g class="st10">
			<text transform="matrix(0.9966 0.08245 -0.08245 0.9966 13.6330843 27.0968552)" class="st13 st5 st28">e</text>
		</g>
		<g class="st10">
			<text transform="matrix(0.9966 -0.08245 0.08245 0.9966 15.5181017 27.2703419)" class="st13 st5 st28">u</text>
		</g>
		<g class="st10">
			<text transform="matrix(0.9720899 -0.23461 0.23461 0.9720899 17.6125183 26.9771729)" class="st13 st5 st30">r</text>
		</g>
		<g class="st10">
			<text transform="matrix(0.9122499 -0.40964 0.40964 0.9122499 19.2243595 26.6092167)" class="st13 st5 st26">w</text>
		</g>
		<g class="st10">
			<text transform="matrix(0.81307 -0.58217 0.58217 0.81307 21.8298225 25.2993946)" class="st13 st5 st25">a</text>
		</g>
		<g class="st10">
			<text transform="matrix(0.71132 -0.70287 0.70287 0.71132 23.3469124 24.1476631)" class="st13 st5 st31">a</text>
		</g>
		<g class="st10">
			<text transform="matrix(0.60509 -0.79616 0.79616 0.60509 24.7084961 22.7522583)" class="st13 st5 st30">r</text>
		</g>
		<g class="st10">
			<text transform="matrix(0.4779 -0.87841 0.87841 0.4779 25.556694 21.4690762)" class="st13 st5 st30">d</text>
		</g>
		<g class="st10">
			<text transform="matrix(0.32409 -0.94602 0.94602 0.32409 26.5376682 19.5282345)" class="st13 st5 st30">e</text>
		</g>
		<g class="st10">
			<text transform="matrix(0.18565 -0.9826199 0.9826199 0.18565 27.138195 17.8398304)" class="st13 st5 st27">r</text>
		</g>
		<g class="st10">
			<text transform="matrix(0.0509 -0.9987 0.9987 0.0509 27.3875389 16.1823997)" class="st13 st5 st30">s</text>
		</g>
	</g>
</g>
<g>
	<g>
		<defs>
			<rect id="SVGID_11_" x="33.5069923" y="9.7925739" width="65.4243011" height="12.5556946"/>
		</defs>
		<clipPath id="SVGID_12_">
			<use xlink:href="#SVGID_11_"  style="overflow:visible;"/>
		</clipPath>
		<g class="st32">
			<defs>
				<rect id="SVGID_13_" x="33.5069923" y="9.7922688" width="65.4240036" height="12.5559998"/>
			</defs>
			<clipPath id="SVGID_14_">
				<use xlink:href="#SVGID_13_"  style="overflow:visible;"/>
			</clipPath>
			<g class="st33">
				<text transform="matrix(1 0 0 1 33.5470314 15.5006151)"><tspan x="0" y="0" class="st4 st5 st6 st7">V</tspan><tspan x="4.8129883" y="0" class="st4 st5 st6">AN DAMME C.S.</tspan></text>
			</g>
			<line class="st34" x1="33.5470924" y1="16.9200687" x2="98.6560822" y2="16.9200687"/>
			<g class="st33">
				<text transform="matrix(1 0 0 1 33.5470314 21.5406551)"><tspan x="0" y="0" class="st4 st5 st9">GERECHTSDEU</tspan><tspan x="35.3886719" y="0" class="st4 st5 st9">R</tspan><tspan x="38.387207" y="0" class="st4 st5 st9">W</tspan><tspan x="42.4731445" y="0" class="st4 st5 st9">AARDERS</tspan></text>
			</g>
		</g>
	</g>
</g>
</svg>
